<svg width="71" height="111" viewBox="0 0 71 111" fill="none" xmlns="http://www.w3.org/2000/svg">
<path d="M35.1453 79.8697C35.1453 79.8697 34.4588 76.4307 29.6404 72.9917C24.822 69.5527 1.41007 61.9755 0.0498782 34.4509C-1.31031 6.92635 25.5085 -0.644508 36.5184 0.0420017C47.5282 0.728512 68.3416 8.97307 70.2407 32.385C72.3067 57.85 50.9928 68.1733 48.2211 69.5463C45.4494 70.9193 42.0233 75.0512 42.0233 79.1703C42.0233 83.2894 42.2095 111 39.457 111C36.7046 111 35.1453 79.8697 35.1453 79.8697Z" fill="#004D9E"/>
<path d="M67.8345 35.8303C67.8328 43.769 64.678 51.3819 59.0639 56.9948C53.4498 62.6077 45.8362 65.7609 37.8975 65.7609C37.4356 65.7609 36.9737 65.7609 36.5181 65.7609C28.815 65.4223 21.5397 62.124 16.2086 56.5534C10.8775 50.9828 7.90186 43.5697 7.90186 35.8592C7.90186 28.1487 10.8775 20.7356 16.2086 15.165C21.5397 9.59443 28.815 6.29611 36.5181 5.95752C36.9737 5.95752 37.4356 5.95752 37.8975 5.95752C45.8257 5.9592 53.4296 9.10498 59.0416 14.705C64.6537 20.305 67.8158 27.9022 67.8345 35.8303Z" fill="#391715"/>
<path d="M36.5248 65.7288C52.2967 65.7288 65.0823 52.3428 65.0823 35.8304C65.0823 19.3179 52.2967 5.93188 36.5248 5.93188C20.7529 5.93188 7.96729 19.3179 7.96729 35.8304C7.96729 52.3428 20.7529 65.7288 36.5248 65.7288Z" fill="#EDF2F4"/>
<path d="M52.8825 42.2593C48.9992 52.0528 38.8371 56.5852 29.2867 53.083C19.9771 49.6669 15.6495 38.7421 19.4498 29.1435C23.2501 19.5449 33.8133 14.6976 43.0457 18.3198C52.2781 21.9419 56.6963 32.6632 52.8825 42.2593Z" fill="#017AFF"/>
<path d="M25.1379 33.1134C25.1379 33.1134 31.8179 46.1574 33.7743 46.3832C35.1068 46.5218 36.4472 46.556 37.7827 46.4856C37.7827 46.4856 49.9662 30.5388 48.9628 28.8408C47.9594 27.1428 42.3808 24.8825 42.3808 24.8825C42.3808 24.8825 35.1491 39.568 34.9426 38.9914C34.7361 38.4148 31.6878 31.9939 31.6878 31.9939C31.6878 31.9939 25.2846 32.2769 25.1379 33.1134Z" fill="#F1F1F1"/>
</svg>
