<svg xmlns="http://www.w3.org/2000/svg" width="142" height="23" viewBox="0 0 142 23">
    <g fill="#46475C" fill-rule="evenodd">
        <path d="M134.604 10.38c-.328-1.465-1.633-1.854-3.093-1.978-4.718-.403-5.553 2.845-5.553 4.216 0 2.347.743 4.287 5.375 4.287.853 0 3.21-.81 3.21-2.126h6.661c-.267 3.903-7.39 4.838-10.497 4.838-6.437 0-11.947-1.104-11.68-6.946.19-4.17 4.467-7.095 12.972-6.913 4.744.102 9.299 1.464 9.318 4.623h-6.713zM68.94 10.38c-.329-1.465-1.634-1.854-3.094-1.978-4.717-.403-5.553 2.845-5.553 4.216 0 2.347.744 4.287 5.375 4.287.853 0 3.211-.81 3.211-2.126h6.66c-.268 3.903-7.39 4.838-10.496 4.838-6.437 0-11.948-1.104-11.681-6.946.19-4.17 4.467-7.095 12.974-6.913 4.742.102 9.296 1.464 9.316 4.623H68.94zM77.156 6.571L85.917 6.571 93.394 16.037 93.454 16.037 93.454 6.571 99.07 6.571 99.07 19.714 90.676 19.714 82.833 10.249 82.771 10.249 82.771 19.714 77.156 19.714zM105.465 16.96h1.76c3.268 0 4.467-.31 4.467-1.329 0-1.092-1.514-1.457-3.955-1.457h-2.272v2.786zm0-5.282h1.76c2.711 0 4.15-.191 4.15-1.21 0-1.092-1.197-1.457-3.638-1.457h-2.272v2.667zm-6.147-5.107h10.618c5.103 0 8.106 1.29 8.106 3.24 0 1.152-1.257 2.573-4.058 2.992v.036c3.373.182 4.618 2.112 4.618 3.27 0 2.316-2.927 3.605-8.635 3.605h-10.65V6.571zM37.194 13.754l-12.57 7.603 4.233-9.101 2.009-4.239c.814-1.37 2.346-2.243 4.017-2.267 1.6 0 3.02.697 3.921 1.947.927 1.25.978 3.293.052 4.559-.415.592-1.03 1.121-1.662 1.498M29.75 6.065l-5.977 13.65-.266-1.49-1.797-11.19c-.075-.682.215-1.258.781-1.636l.858-.494c.05-.173-.2-.23-.316-.288l-1.682-.016c-.107-1.613.625-3.077 2.04-3.957 1.098-.692 2.771-.873 3.994-.313 1.59.625 2.697 2.262 2.721 3.932-.008.618-.116 1.251-.357 1.802M18.539 19.714L12.65 6.055c-.633-1.462-.367-3.384.716-4.566C14.524.249 16.156-.277 17.84.142c1.424.337 2.756 1.65 3.106 3.055.167.526.141 1.158.108 1.733L18.54 19.714zM5.788 14.085c-1.266-.984-1.833-2.295-1.65-3.815.183-1.535 1.537-3.039 3.151-3.503 1.66-.463 3.466-.096 4.671 1.016.506.432.82.944 1.082 1.472l5.963 12.924-13.217-8.094z"/>
        <path d="M4.009 22.997c-1.585-.18-2.806-1.029-3.551-2.474-.755-1.459-.559-3.529.456-4.822 1.105-1.317 2.704-1.98 4.315-1.655.657.105 1.208.387 1.726.71L19.284 23l-15.275-.003zM39.078 22.997c1.586-.18 2.806-1.029 3.552-2.474.754-1.459.558-3.529-.456-4.822-1.106-1.317-2.705-1.98-4.317-1.655-.656.105-1.207.387-1.725.71L23.803 23l15.275-.003z"/>
    </g>
</svg>
