<svg xmlns="http://www.w3.org/2000/svg" width="105" height="23" viewBox="0 0 105 23">
    <path fill="#46475C" fill-rule="evenodd" d="M19.512 0c3.154.003 5.654 2.35 5.656 5.32.005 4.11.004 8.218 0 12.327 0 3.03-2.476 5.36-5.681 5.353-3.162-.007-5.615-2.339-5.619-5.348-.002-2.054 0-4.108 0-6.163 0-2.054-.003-4.109 0-6.163.007-2.986 2.493-5.33 5.644-5.326zM82.35 0l3.88 11.412.127-.01V.006h4.124v22.17c-1.427 0-2.842.016-4.256-.023-.16-.004-.388-.295-.455-.49-1.017-2.964-2.011-5.933-3.011-8.901-.1-.297-.207-.592-.31-.888l-.165.043V22.14h-3.978V0h4.044zM35.57 0c2.77 0 5.14 1.962 5.332 4.624.129 1.801.03 3.626-.081 5.433-.076 1.239-.727 2.27-1.63 3.16-.153.151-.187.525-.121.754.74 2.555 1.511 5.102 2.272 7.651.051.17.089.345.143.557h-4.06l-2.864-10.502c1.618-.508 2.525-1.489 2.455-3.168-.024-.59-.004-1.18-.004-1.771 0-.5.014-1-.004-1.499-.027-.794-.606-1.378-1.41-1.415-.468-.022-.936-.005-1.494-.005v18.352H30.18V.038c.198-.013.4-.035.603-.036C32.379-.001 33.974 0 35.57 0zm29.692 0v.718c0 5.214 0 10.428.004 15.642 0 .312.008.63.078.933.147.647.775 1.105 1.463 1.115.74.01 1.363-.436 1.526-1.128.061-.259.065-.532.065-.799l.003-7.855V.01h4.046c.012.244.031.462.031.68.002 5.527.005 11.055 0 16.582-.002 2.62-2.554 4.874-5.539 4.906-3.038.033-5.732-2.165-5.746-4.785-.032-5.706-.01-11.413-.007-17.12 0-.064.02-.13.043-.273h4.033zM105 0v3.783h-5.621v5.06h3.572v3.85h-3.554v5.678h5.602v3.808h-9.565V0H105zM9.566 0v3.78H4.033v5.075h3.493v3.86H3.992v9.464H0V0h9.566zm47.417 0v3.772h-3.546v18.407h-4.179V3.76h-3.58V0h11.305zM19.545 3.848c-.937-.023-1.555.646-1.556 1.704-.003 3.974-.003 7.95 0 11.924.002 1.027.58 1.663 1.499 1.675.957.011 1.557-.631 1.559-1.69.004-1.964 0-3.929 0-5.894 0-2.01.004-4.02 0-6.03-.003-1.01-.594-1.667-1.502-1.69z"/>
</svg>
