<?xml version="1.0" encoding="UTF-8"?>
<svg width="80px" height="50px" viewBox="0 0 80 50" version="1.1" xmlns="http://www.w3.org/2000/svg" xmlns:xlink="http://www.w3.org/1999/xlink">
    <!-- Generator: Sketch 51.2 (57519) - http://www.bohemiancoding.com/sketch -->
    <title>Icon / GarageDoors Hover</title>
    <desc>Created with Sketch.</desc>
    <defs></defs>
    <g id="Icon-/-GarageDoors-Hover" stroke="none" stroke-width="1" fill="none" fill-rule="evenodd">
        <g id="GarageDoors_icn" transform="translate(18.000000, 14.000000)">
            <path d="M21,9.5 C21,10.3287138 21.6711817,11 22.5002335,11 C23.3283512,11 24,10.3287138 24,9.5 C24,8.67175335 23.3283512,8 22.5002335,8 C21.6711817,8 21,8.67175335 21,9.5" id="Fill-5" fill="#FFFFFF"></path>
            <path d="M20.1,8 C20.1,6.95065494 20.9505225,6.1 22.0001557,6.1 C23.0493218,6.1 23.9,6.95081066 23.9,8 C23.9,9.04943656 23.049386,9.9 22.0001557,9.9 C20.9504583,9.9 20.1,9.04959224 20.1,8 Z" id="Stroke-7" stroke="#153454" stroke-width="1.8" fill="#12FFCD" stroke-linecap="round" stroke-linejoin="round"></path>
            <path d="M35,35 L35,16.8149069 C35,16.3649402 34.6355612,16 34.1857923,16 L8.81336696,16 C8.3640185,16 8,16.3649402 8,16.8149069 L8,35 L35,35 Z" id="Stroke-11" stroke="#153454" stroke-width="2" fill="#71B6FF" stroke-linecap="round" stroke-linejoin="round"></path>
            <polyline id="Stroke-2" stroke="#153454" stroke-width="2" stroke-linecap="round" stroke-linejoin="round" points="44 14.516129 22.1869211 0 -3.69482223e-13 14.516129"></polyline>
            <path d="M3,12.6393881 L3,33.1141854 C3,34.1557302 3.85068656,35 4.9001474,35 L39.1002737,35 C40.1497346,35 41,34.1557302 41,33.1141854 L41,12.6393881 L21.9997894,0 L3,12.6393881 Z" id="Stroke-6" stroke="#153454" stroke-width="2" stroke-linecap="round" stroke-linejoin="round"></path>
            <path d="M9,19 L35,19" id="Fill-17" fill="#FFFFFF"></path>
            <path d="M9,23 L35,23" id="Fill-21" fill="#FFFFFF"></path>
            <path d="M9,27 L35,27" id="Fill-25" fill="#FFFFFF"></path>
            <path d="M9,31 L35,31" id="Fill-29" fill="#FFFFFF"></path>
            <path d="M8.25711523,19.6048018 L35.2850967,19.6048018" id="Path-2" stroke="#153454" fill-rule="nonzero"></path>
            <path d="M8.25711523,23.675 L35.2850967,23.675" id="Path-2-Copy" stroke="#153454" fill-rule="nonzero"></path>
            <path d="M8.25711523,27.675 L35.2850967,27.675" id="Path-2-Copy-2" stroke="#153454" fill-rule="nonzero"></path>
            <path d="M8.25711523,31.675 L35.2850967,31.675" id="Path-2-Copy-3" stroke="#153454" fill-rule="nonzero"></path>
        </g>
    </g>
</svg>