<?xml version="1.0" encoding="UTF-8"?>
<svg width="80px" height="50px" viewBox="0 0 80 50" version="1.1" xmlns="http://www.w3.org/2000/svg" xmlns:xlink="http://www.w3.org/1999/xlink">
    <!-- Generator: Sketch 51.2 (57519) - http://www.bohemiancoding.com/sketch -->
    <title>Icon / Home Hover</title>
    <desc>Created with Sketch.</desc>
    <defs></defs>
    <g id="Icon-/-Home-Hover" stroke="none" stroke-width="1" fill="none" fill-rule="evenodd">
        <g id="home-app" transform="translate(25.000000, 19.000000)">
            <rect id="Rectangle-21" fill="#12FFCD" x="0" y="0" width="31" height="7"></rect>
            <path d="M2.0298221,30 L28.9709558,30 C30.0914611,30 31,29.1801879 31,28.1687587 L31,1.8312413 C31,0.819812126 30.0914611,0 28.9709558,0 L2.0298221,0 C0.90892781,0 0,0.819812126 0,1.8312413 L0,28.1687587 C0,29.1801879 0.90892781,30 2.0298221,30 Z" id="Stroke-3" stroke="#153454" stroke-width="2" stroke-linecap="round" stroke-linejoin="round"></path>
            <path d="M0.455882353,6.81818182 L30,6.81818182" id="Stroke-7" stroke="#153454" stroke-width="2" stroke-linecap="round" stroke-linejoin="round"></path>
            <path d="M24,3.18181818 L27.8088235,3.18181818" id="Stroke-15" stroke="#153454" stroke-width="2" stroke-linecap="round" stroke-linejoin="round"></path>
            <path d="M15.5,12.3020528 C12.2498782,12.3020528 9.60294118,14.9412275 9.60294118,18.1818182 C9.60294118,21.4224089 12.2498782,24.0615836 15.5,24.0615836 C18.7501218,24.0615836 21.3970588,21.4224089 21.3970588,18.1818182 C21.3970588,14.9412275 18.7501218,12.3020528 15.5,12.3020528 Z" id="Stroke-23" stroke="#153454" stroke-width="1.8" fill="#B6DBFF" stroke-linecap="round" stroke-linejoin="round"></path>
        </g>
    </g>
</svg>