<svg width="102" height="100" viewBox="0 0 102 100" fill="none" xmlns="http://www.w3.org/2000/svg">
<path d="M82.8365 83.5239C83.3143 83.5239 102.303 84.7538 101.347 87.3487C100.39 89.9436 50.8699 99.5077 43.8343 99.0288C36.7986 98.5499 -4.44331 86.9228 0.39328 85.7095C23.0014 80.0408 82.8365 83.5239 82.8365 83.5239Z" fill="#D6E6ED"/>
<path d="M64.6078 18.472C64.6078 18.472 64.9869 5.53812 64.5319 5.20051C64.0769 4.86291 55.9993 4.36949 55.9526 4.91173C55.9058 5.45398 55.7677 15.7826 55.7677 15.7826L64.6078 18.472Z" fill="#F1F1F1"/>
<path d="M59.823 17.0169L55.7717 15.7828C55.7717 15.7828 55.9099 5.45313 55.9566 4.91193C55.9784 4.66054 57.7288 4.63249 59.6443 4.70417L59.7378 4.74676L59.823 17.0169Z" fill="#D8D8D8"/>
<path d="M95.4417 44.3015L79.1857 45.1034L57.2777 17.8218L71.6264 12.684L95.4417 44.3015Z" fill="#004D9E"/>
<path d="M87.7479 86.9115C87.7479 86.9115 48.7477 94.1601 46.9433 94.0573C45.139 93.9544 10.5464 87.9502 10.6492 86.8678C10.752 85.7854 11.0782 42.9812 11.5425 41.1768C11.7939 40.1983 24.357 23.5175 32.2913 16.9659L68.7339 16.9326C73.4251 21.39 87.1817 38.02 88.0138 39.9937C89.6634 43.914 87.7479 86.9115 87.7479 86.9115Z" fill="#F1F1F1"/>
<path d="M64.6169 16.939H68.7336C73.4248 21.3964 87.1814 38.0263 88.0135 40C88.2815 40.6368 88.456 42.3082 88.5588 44.659C87.4307 43.5994 70.6813 27.9075 68.9694 27.4515C67.1983 26.9788 47.346 45.5835 47.346 45.5835L42.6912 39.2022C42.6912 39.2022 56.8811 23.1821 64.6169 16.939Z" fill="#E8E8E8"/>
<path d="M32.2909 16.9659L67.6096 17.7045C60.7027 25.1173 47.614 39.2604 47.4458 40.1724C47.2276 41.3151 47.0604 86.977 47.0302 94.2848C44.4655 94.0376 10.5418 87.9368 10.6436 86.8679C10.7454 85.799 11.0727 42.9813 11.537 41.1769C11.7936 40.2015 24.3567 23.5196 32.2909 16.9659Z" fill="#D8D8D8"/>
<path d="M42.5149 46.3438C42.5149 46.3438 69.1473 16.7592 70.9185 16.5223C72.6896 16.2855 93.0924 44.395 94.0668 44.395C95.2479 44.395 96.429 44.2766 96.429 44.2766C96.429 44.2766 73.2806 11.9164 71.6861 11.3845C70.0916 10.8527 31 11.5621 29.1104 12.3298C27.2209 13.0975 4.01337 40.9702 4.01337 42.6821C4.01337 44.394 42.5149 46.3438 42.5149 46.3438Z" fill="#017AFF"/>
<path d="M39.936 46.2066C31.3141 45.734 4.01379 44.1291 4.01379 42.682C4.01379 40.9701 27.2213 13.0974 29.1109 12.3298C30.9443 11.585 67.8015 10.8952 71.4466 11.3408L71.6865 11.3845C71.6865 11.3845 40.0815 44.3358 39.9402 46.1661C39.9392 46.1796 39.9381 46.1931 39.936 46.2066Z" fill="#017AFF"/>
<path d="M60.8074 85.5538C73.2936 83.659 89.2275 81.1836 89.2275 81.1836C89.2275 81.1836 89.1091 86.5572 89.0499 87.2657C89.0135 87.704 79.1295 89.3921 79.1295 89.3921L60.8074 85.5538Z" fill="#71B6FF"/>
<path d="M37.4956 75.6915C38.2041 74.6288 38.5583 53.5477 38.0275 53.0158C37.4967 52.484 18.5399 50.0034 18.0091 51.0089C17.4782 52.0145 17.2414 72.1493 18.1856 73.2119C18.9938 74.1209 36.9357 76.5319 37.4956 75.6915Z" fill="#B3B3B3"/>
<path d="M38.2652 53.607C38.2652 53.607 38.5602 74.8066 37.616 75.3374C36.6717 75.8682 20.9632 73.7428 20.7876 72.9752C20.6121 72.2075 19.6658 51.7767 21.0245 51.5398C22.3832 51.303 38.0855 52.7209 38.2652 53.607Z" fill="#F1F1F1"/>
<path d="M36.7644 54.6404C36.7644 54.6404 37.048 74.0148 36.1982 74.072C35.3485 74.1291 28.6639 73.4487 28.5507 72.9958C28.4375 72.5429 28.3803 53.96 28.7772 53.8468C29.174 53.7336 36.3115 54.3028 36.7644 54.6404Z" fill="#2F8AC2"/>
<path d="M27.4621 53.7929C27.4621 53.7929 27.5753 60.4775 27.1785 60.5907C26.7817 60.7039 22.0241 60.5346 21.7966 60.1378C21.5691 59.741 21.4569 53.5093 22.0801 53.4532C22.7034 53.3971 27.4621 53.7929 27.4621 53.7929Z" fill="#2F8AC2"/>
<path d="M27.1837 61.7241C27.1837 61.7241 27.5234 72.6584 27.2398 72.7716C26.9562 72.8849 22.1975 72.6013 21.915 72.0351C21.6324 71.469 21.2917 61.4977 21.8579 61.3273C22.424 61.157 27.1837 61.7241 27.1837 61.7241Z" fill="#2F8AC2"/>
<path d="M29.1696 56.0865L36.1367 70.8456C36.1367 70.8456 36.1367 72.5586 35.9009 72.7944C35.6651 73.0302 32.8303 68.8376 32.8303 68.8376L33.3621 71.2611L32.2402 71.4969L28.9327 58.5059L29.1696 56.0865Z" fill="#479BDB"/>
<path d="M26.4534 60.1617C26.4534 60.1617 23.5593 54.1368 23.3235 54.0796C23.0877 54.0225 22.4374 54.3747 22.4374 54.3747L25.0946 60.1025L26.4534 60.1617Z" fill="#479BDB"/>
<path d="M23.9725 59.0399L22.083 55.0831L21.9645 56.1458C21.9645 56.1458 23.7367 59.5115 23.9133 59.2165C24.0899 58.9214 23.9725 59.0399 23.9725 59.0399Z" fill="#479BDB"/>
<path d="M21.965 62.2871C21.965 62.2871 26.9844 71.4399 26.9844 71.6767C26.9844 71.9135 26.9252 72.3851 26.8078 72.3851C26.6682 72.3742 26.5294 72.3544 26.3923 72.3259L21.7863 63.2885L21.965 62.2871Z" fill="#479BDB"/>
<path d="M79.1137 89.391C79.1137 89.391 79.3038 48.4691 78.6546 48.3507C78.0053 48.2322 59.2293 48.8825 59.1088 49.6502C58.9883 50.4179 59.168 92.1085 59.168 92.1085L76.8834 88.9786L79.1137 89.391Z" fill="#D8D8D8"/>
<path d="M76.174 49.1776C76.6186 49.3999 76.8534 84.6002 76.8804 88.9631L59.168 92.1106C59.168 92.1106 59.0049 53.9768 59.0953 49.9733C63.2068 49.4082 75.7772 48.9792 76.174 49.1776Z" fill="#017AFF"/>
<path d="M74.428 52.3552C74.428 52.3552 75.1261 63.4027 74.4727 63.9896C73.8193 64.5765 68.5516 64.8964 68.2701 64.3646C67.8608 63.5938 67.8494 56.1582 67.8494 56.1582C67.8494 56.1582 68.4509 63.7205 68.6264 63.9584C68.802 64.1963 73.2906 64.1662 73.4121 63.6343C73.5336 63.1025 73.4183 53.3586 73.1233 53.18C72.8283 53.0013 68.2234 53.0896 68.1018 53.503C67.9803 53.9165 67.8525 55.5681 67.8525 55.5681C67.8525 55.5681 67.3986 52.7302 67.9907 52.4393C68.5828 52.1485 74.2566 51.466 74.428 52.3552Z" fill="#004D9E"/>
<path d="M74.5764 66.2905C74.5764 66.2905 75.2735 77.338 74.6211 77.9249C73.9688 78.5119 68.7 78.8318 68.4175 78.2999C68.0092 77.5292 68.002 70.0935 68.002 70.0935C68.002 70.0935 68.6045 77.6559 68.78 77.8938C68.9556 78.1317 73.4442 78.1015 73.5657 77.5697C73.6872 77.0378 73.5709 67.294 73.2769 67.1153C72.9829 66.9367 68.3759 67.025 68.2554 67.4384C68.1349 67.8518 68.0061 69.5035 68.0061 69.5035C68.0061 69.5035 67.5522 66.6655 68.1443 66.3747C68.7364 66.0838 74.405 65.4034 74.5764 66.2905Z" fill="#004D9E"/>
<path d="M66.1553 53.1281C66.1553 53.1281 66.8523 64.1746 66.2 64.7625C65.5476 65.3505 60.2789 65.6683 59.9963 65.1365C59.5881 64.3667 59.5756 56.9301 59.5756 56.9301C59.5756 56.9301 60.1781 64.4924 60.3537 64.7293C60.5292 64.9661 65.0178 64.937 65.1394 64.4052C65.2609 63.8733 65.1394 54.1305 64.8506 53.9519C64.5618 53.7732 59.9496 53.8615 59.8291 54.2739C59.7086 54.6863 59.5798 56.339 59.5798 56.339C59.5798 56.339 59.1258 53.5021 59.7179 53.2102C60.3101 52.9183 65.9839 52.241 66.1553 53.1281Z" fill="#004D9E"/>
<path d="M66.3628 67.2422C66.3628 67.2422 67.0609 78.2896 66.4075 78.8766C65.7541 79.4635 60.4864 79.7824 60.2049 79.2505C59.7956 78.4797 59.7842 71.0389 59.7842 71.0389C59.7842 71.0389 60.3857 78.6013 60.5612 78.8392C60.7368 79.077 65.2254 79.0469 65.3469 78.515C65.4685 77.9832 65.3531 68.2394 65.0581 68.0607C64.7631 67.882 60.1582 67.9703 60.0366 68.3838C59.9151 68.7972 59.7884 70.4489 59.7884 70.4489C59.7884 70.4489 59.3334 67.6109 59.9255 67.3201C60.5176 67.0292 66.1914 66.355 66.3628 67.2422Z" fill="#004D9E"/>
<path d="M76.3512 73.6845C76.3512 73.6845 76.4696 69.7278 76.292 69.7278C76.1144 69.7278 75.5244 69.6686 75.461 69.787C75.3976 69.9055 75.461 73.7427 75.6386 73.8611C75.8163 73.9796 76.3512 73.9796 76.3512 73.6845Z" fill="#FFB002"/>
<path d="M76.2741 72.3777C75.7911 72.2995 75.4628 71.8445 75.5409 71.3615C75.6191 70.8784 76.0741 70.5501 76.5572 70.6283C77.0403 70.7064 77.3685 71.1614 77.2904 71.6445C77.2122 72.1276 76.7572 72.4558 76.2741 72.3777Z" fill="#EF9500"/>
<path d="M75.9385 71.3817C75.9382 71.253 75.9762 71.1271 76.0476 71.02C76.119 70.9129 76.2205 70.8294 76.3394 70.78C76.4583 70.7307 76.5891 70.7177 76.7153 70.7428C76.8416 70.7678 76.9575 70.8298 77.0486 70.9208C77.1396 71.0118 77.2015 71.1278 77.2266 71.254C77.2516 71.3803 77.2387 71.5111 77.1893 71.63C77.14 71.7488 77.0565 71.8504 76.9494 71.9217C76.8423 71.9931 76.7164 72.0311 76.5877 72.0309C76.4155 72.0309 76.2504 71.9625 76.1286 71.8408C76.0069 71.719 75.9385 71.5539 75.9385 71.3817Z" fill="#FFB002"/>
<path d="M75.9974 72.975L76.1159 73.3303H75.8198L75.9382 72.975C75.9069 72.9679 75.8773 72.9545 75.8513 72.9356C75.8253 72.9167 75.8034 72.8928 75.7869 72.8652C75.7704 72.8376 75.7596 72.807 75.7553 72.7752C75.751 72.7433 75.7531 72.711 75.7616 72.68C75.8198 72.4442 76.1771 72.5034 76.1771 72.68C76.1862 72.7424 76.1731 72.806 76.1404 72.8598C76.1076 72.9137 76.057 72.9544 75.9974 72.975Z" fill="#1A1A1A"/>
<path d="M46.3674 87.4828L10.7589 80.9997L10.7734 80.7358C10.7734 80.7358 9.50716 81.007 9.50716 81.1836C9.50716 81.3602 13.9947 83.4273 13.9947 83.4273L46.2365 88.801L46.3674 87.4828Z" fill="#AA3B30"/>
<path d="M46.0583 87.7383L46.2349 87.4433L59.148 85.532V85.2349L60.459 85.5766L59.6518 86.0119L60.112 86.9707L46.0583 87.7383Z" fill="#891A1A"/>
<path d="M9.50538 81.1834C9.74118 80.5342 44.9363 87.679 46.1745 87.679C46.6305 87.679 53.1416 86.6838 60.4651 85.5744V92.7077C53.2331 93.9397 46.8061 95.0014 46.3521 95.0014C45.1118 95.0014 9.85856 87.4431 9.5625 87.1481C9.26645 86.8531 9.26854 81.8327 9.50538 81.1834Z" fill="#71B6FF"/>
<path d="M46.2224 94.9912C43.5849 94.6796 9.85244 87.4372 9.56366 87.1484C9.27487 86.8596 9.26865 81.8329 9.50549 81.1837C9.74233 80.5344 44.1802 87.5265 46.1227 87.6771C46.1601 90.3499 46.2016 93.458 46.2224 94.9912Z" fill="#004D9E"/>
<path d="M87.9913 80.9375C87.985 80.9479 89.2253 81.1837 89.2253 81.1837L79.1418 82.7419L79.1273 89.3901L76.8835 88.9746L76.8243 82.184L79.1273 82.4801L87.9694 81.1359L87.9913 80.9375Z" fill="#004D9E"/>
<path d="M67.4164 41.229C63.7706 40.6766 61.3139 36.9367 61.9292 32.8757C62.5445 28.8148 65.9988 25.9705 69.6446 26.5229C73.2904 27.0753 75.7471 30.8151 75.1318 34.8761C74.5165 38.9371 71.0622 41.7814 67.4164 41.229Z" fill="#B3B3B3"/>
<path d="M66.5229 39.8581C63.341 39.3626 61.2089 36.088 61.7607 32.5439C62.3126 28.9997 65.3393 26.5283 68.5212 27.0237C71.7031 27.5192 73.8351 30.7938 73.2833 34.3379C72.7315 37.882 69.7047 40.3535 66.5229 39.8581Z" fill="white"/>
<path d="M66.372 38.2868C63.9696 37.9128 62.3599 35.44 62.7765 32.7638C63.1932 30.0876 65.4786 28.2213 67.881 28.5954C70.2834 28.9695 71.8932 31.4422 71.4765 34.1184C71.0598 36.7946 68.7744 38.6609 66.372 38.2868Z" fill="#2F8AC2"/>
<path d="M63.9901 30.602C63.9901 30.602 68.5451 37.5338 68.7435 37.4673C68.9419 37.4008 69.5361 37.2035 69.5361 36.7402C69.5361 36.2769 64.3869 30.1387 64.3869 30.1387L63.9901 30.602Z" fill="#479BDB"/>
<path d="M68.5447 33.9687C68.5447 33.9687 65.0128 29.9091 65.3431 29.6442C65.6735 29.3794 66.5835 28.7987 66.9211 29.021C67.2587 29.2433 69.1721 33.4701 69.1721 33.4701L68.5447 33.9687Z" fill="#479BDB"/>
<path d="M42.5746 81.7156C42.5746 81.7156 37.3807 80.6529 37.2602 81.0653C37.1397 81.4777 37.0234 82.9559 37.2602 83.1917C37.497 83.4275 42.397 84.4912 42.5746 83.9594C42.7523 83.4275 42.7512 82.0106 42.7512 82.0106C42.7512 82.0106 42.5154 83.7765 42.1612 83.8409C41.807 83.9053 37.5552 83.3683 37.496 83.0099C37.4368 82.6515 37.3776 81.298 37.6726 81.298C37.9676 81.298 42.5746 81.7156 42.5746 81.7156Z" fill="#D1D1D1"/>
<path d="M37.4955 78.8806C37.4955 78.8806 32.3016 77.8179 32.1811 78.2314C32.0606 78.6448 31.9443 80.1209 32.1811 80.3567C32.4179 80.5925 37.3179 81.6562 37.4955 81.1244C37.6732 80.5925 37.6721 79.1756 37.6721 79.1756C37.6721 79.1756 37.4363 80.9478 37.0821 81.007C36.7279 81.0662 32.4761 80.5344 32.4169 80.176C32.3577 79.8176 32.2985 78.463 32.5945 78.463C32.8906 78.463 37.4955 78.8806 37.4955 78.8806Z" fill="#D1D1D1"/>
<path d="M17.7128 73.0343C17.7128 73.0343 12.5188 71.9716 12.3983 72.3851C12.2778 72.7985 12.1625 74.2746 12.3983 74.5104C12.6341 74.7462 17.5362 75.8099 17.7128 75.2781C17.8893 74.7462 17.8904 73.3304 17.8904 73.3304C17.8904 73.3304 17.6535 75.0963 17.2993 75.1607C16.9451 75.2251 12.6933 74.6881 12.6352 74.3297C12.577 73.9713 12.5167 72.6167 12.8118 72.6167C13.1068 72.6167 17.7128 73.0343 17.7128 73.0343Z" fill="#D1D1D1"/>
<path d="M53.0398 71.9883C53.0398 71.9883 58.2721 71.1199 58.375 71.5375C58.4778 71.9551 58.5412 73.4343 58.296 73.6618C58.0509 73.8893 53.1135 74.7681 52.9567 74.23C52.7998 73.692 52.8528 72.2761 52.8528 72.2761C52.8528 72.2761 53.0231 74.0555 53.3722 74.1282C53.7212 74.201 57.9927 73.827 58.0644 73.4759C58.136 73.1248 58.2462 71.7692 57.9511 71.7577C57.6561 71.7463 53.0398 71.9883 53.0398 71.9883Z" fill="#E8E8E8"/>
<path d="M79.8503 77.8376C79.8503 77.8376 85.0827 76.9692 85.1855 77.3868C85.2884 77.8044 85.3507 79.2846 85.1055 79.5111C84.8604 79.7375 79.923 80.6184 79.7662 80.0803C79.6093 79.5422 79.6623 78.1264 79.6623 78.1264C79.6623 78.1264 79.8316 79.9058 80.1817 79.9775C80.5318 80.0492 84.8033 79.6752 84.876 79.3262C84.9487 78.9771 85.0578 77.6184 84.7627 77.608C84.4677 77.5976 79.8503 77.8376 79.8503 77.8376Z" fill="#E8E8E8"/>
<path d="M81.8573 75.0631C81.8573 75.0631 87.0907 74.1946 87.1925 74.6122C87.2943 75.0298 87.3587 76.509 87.1136 76.7365C86.8684 76.964 81.9311 77.8429 81.7742 77.3048C81.6174 76.7667 81.6703 75.3508 81.6703 75.3508C81.6703 75.3508 81.8407 77.1302 82.1897 77.203C82.5388 77.2757 86.8102 76.9017 86.8819 76.5506C86.9536 76.1995 87.0637 74.8439 86.7687 74.8324C86.4737 74.821 81.8573 75.0631 81.8573 75.0631Z" fill="#E8E8E8"/>
<path d="M76.6036 43.9637C76.6036 43.9637 81.8786 43.4142 81.9554 43.837C82.0323 44.2598 82.0063 45.74 81.7477 45.952C81.489 46.1639 76.508 46.7425 76.3834 46.1961C76.2587 45.6497 76.3979 44.24 76.3979 44.24C76.3979 44.24 76.4603 46.0257 76.8062 46.1192C77.1521 46.2127 81.4371 46.0995 81.5306 45.7525C81.6241 45.4056 81.8152 44.0603 81.5212 44.0312C81.2272 44.0022 76.6036 43.9637 76.6036 43.9637Z" fill="#E8E8E8"/>
<path d="M25.6852 46.8744C25.6852 46.8744 20.4913 45.8117 20.3698 46.2251C20.2482 46.6386 20.134 48.1147 20.3698 48.3505C20.6056 48.5863 25.5076 49.65 25.6852 49.1182C25.8629 48.5863 25.8618 47.1704 25.8618 47.1704C25.8618 47.1704 25.626 48.9364 25.2718 49.0008C24.9176 49.0652 20.6658 48.5281 20.6066 48.1698C20.5474 47.8114 20.4882 46.4568 20.7832 46.4568C21.0782 46.4568 25.6852 46.8744 25.6852 46.8744Z" fill="#D1D1D1"/>
<path d="M43.932 61.5195C43.932 61.5195 38.7381 60.4569 38.6176 60.8703C38.4971 61.2837 38.3818 62.7598 38.6176 62.9956C38.8534 63.2315 43.7554 64.2952 43.932 63.7633C44.1086 63.2315 44.1096 61.8145 44.1096 61.8145C44.1096 61.8145 43.8728 63.5867 43.5185 63.6459C43.1643 63.7051 38.9126 63.1733 38.8534 62.8149C38.7941 62.4565 38.736 61.1019 39.031 61.1019C39.326 61.1019 43.932 61.5195 43.932 61.5195Z" fill="#D1D1D1"/>
<path d="M64.5183 14.6701C65.4304 14.6701 66.8182 14.428 68.6288 13.4111C69.3457 13.0118 70.0253 12.549 70.6596 12.0284C70.6753 12.0162 70.6883 12.0009 70.698 11.9835C70.7076 11.966 70.7136 11.9469 70.7156 11.9271C70.7176 11.9073 70.7155 11.8873 70.7096 11.8683C70.7037 11.8493 70.694 11.8317 70.6811 11.8165C70.6682 11.8014 70.6524 11.789 70.6345 11.7802C70.6167 11.7713 70.5973 11.7661 70.5775 11.7649C70.5576 11.7638 70.5377 11.7666 70.519 11.7734C70.5003 11.7801 70.4831 11.7905 70.4685 11.8041C70.4363 11.8311 67.2296 14.5392 64.2545 14.3667C63.5273 14.3252 63.0297 14.0935 62.7649 13.6791C62.2735 12.9093 62.7243 11.7459 62.7295 11.7345C62.744 11.6981 62.7434 11.6575 62.7279 11.6215C62.7125 11.5856 62.6833 11.5573 62.647 11.5428C62.6106 11.5283 62.57 11.5289 62.534 11.5444C62.4981 11.5599 62.4698 11.589 62.4553 11.6254C62.4335 11.6794 61.9442 12.9426 62.5166 13.838C62.8355 14.3377 63.4141 14.615 64.2368 14.6618C64.3251 14.6669 64.4186 14.6701 64.5183 14.6701Z" fill="#8C0331"/>
<path d="M56.6642 16.9137C57.5762 16.9137 58.9641 16.6717 60.7747 15.6547C61.4916 15.2549 62.1715 14.7922 62.8065 14.2721C62.8363 14.2466 62.8547 14.2103 62.8577 14.1713C62.8607 14.1322 62.8481 14.0936 62.8226 14.0638C62.7971 14.034 62.7609 14.0156 62.7218 14.0126C62.6828 14.0096 62.6441 14.0222 62.6144 14.0477C62.5822 14.0757 59.3754 16.7828 56.4003 16.6114C55.6732 16.5688 55.1766 16.3372 54.9118 15.9227C54.4204 15.153 54.8712 13.9895 54.8754 13.9781C54.8845 13.9429 54.8803 13.9056 54.8636 13.8734C54.8468 13.8411 54.8188 13.8161 54.7848 13.8033C54.7509 13.7904 54.7133 13.7905 54.6794 13.8036C54.6455 13.8167 54.6177 13.8418 54.6012 13.8742C54.5804 13.9272 54.0911 15.1904 54.6624 16.0858C54.9814 16.5854 55.56 16.8628 56.3837 16.9096C56.471 16.9106 56.5655 16.9137 56.6642 16.9137Z" fill="#8C0331"/>
<path d="M37.4135 15.8513C38.3255 15.8513 39.7133 15.6083 41.5239 14.5913C42.2407 14.1917 42.9206 13.7293 43.5558 13.2097C43.5705 13.1971 43.5826 13.1817 43.5914 13.1644C43.6002 13.1471 43.6055 13.1282 43.607 13.1089C43.6085 13.0896 43.6061 13.0701 43.6001 13.0517C43.5941 13.0332 43.5845 13.0162 43.5719 13.0014C43.5593 12.9867 43.5439 12.9746 43.5266 12.9658C43.5093 12.957 43.4904 12.9517 43.4711 12.9502C43.4518 12.9487 43.4323 12.9511 43.4139 12.9571C43.3954 12.9631 43.3784 12.9727 43.3636 12.9853C43.3314 13.0123 40.1247 15.7204 37.1496 15.548C36.4225 15.5065 35.9259 15.2748 35.661 14.8603C35.1697 14.0906 35.6205 12.9272 35.6247 12.9157C35.6391 12.8794 35.6386 12.8387 35.6231 12.8028C35.6076 12.7669 35.5785 12.7385 35.5421 12.7241C35.5057 12.7096 35.4651 12.7102 35.4292 12.7257C35.3932 12.7412 35.3649 12.7703 35.3504 12.8067C35.3296 12.8607 34.8404 14.1238 35.4117 15.0193C35.7306 15.5179 36.3092 15.7952 37.133 15.843C37.2202 15.8482 37.3148 15.8513 37.4135 15.8513Z" fill="#8C0331"/>
<path d="M41.9611 21.5198C42.8721 21.5198 44.261 21.2778 46.0706 20.2608C46.7877 19.8614 47.4677 19.3986 48.1024 18.8782C48.1172 18.8656 48.1293 18.8502 48.138 18.8329C48.1468 18.8156 48.1521 18.7967 48.1536 18.7774C48.1551 18.758 48.1528 18.7386 48.1468 18.7202C48.1407 18.7017 48.1311 18.6846 48.1185 18.6699C48.1059 18.6552 48.0905 18.6431 48.0732 18.6343C48.0559 18.6255 48.0371 18.6202 48.0177 18.6187C47.9984 18.6172 47.9789 18.6196 47.9605 18.6256C47.9421 18.6316 47.925 18.6412 47.9102 18.6538C47.878 18.6819 44.6713 21.39 41.6962 21.2175C40.9691 21.176 40.4725 20.9433 40.2077 20.5288C39.7163 19.7591 40.1671 18.5956 40.1713 18.5842C40.1785 18.5663 40.1822 18.5471 40.182 18.5278C40.1818 18.5084 40.1777 18.4893 40.1701 18.4715C40.1625 18.4538 40.1514 18.4377 40.1375 18.4242C40.1236 18.4108 40.1072 18.4002 40.0892 18.3931C40.0527 18.3787 40.012 18.3794 39.976 18.395C39.94 18.4106 39.9116 18.4398 39.8971 18.4762C39.8763 18.5292 39.387 19.7923 39.9583 20.6878C40.2773 21.1874 40.8569 21.4648 41.6796 21.5115C41.7679 21.5167 41.8614 21.5198 41.9611 21.5198Z" fill="#8C0331"/>
<path d="M21.9953 26.5072C22.9074 26.5072 24.2952 26.2651 26.1058 25.2481C26.8227 24.8489 27.5024 24.3861 28.1366 23.8655C28.1645 23.8397 28.1814 23.804 28.1836 23.766C28.1858 23.7281 28.1733 23.6907 28.1486 23.6617C28.1239 23.6328 28.089 23.6145 28.0512 23.6106C28.0134 23.6068 27.9755 23.6177 27.9455 23.6411C27.9133 23.6692 24.7066 26.3773 21.7315 26.2049C21.0043 26.1633 20.5068 25.9317 20.2419 25.5162C19.7505 24.7464 20.2014 23.583 20.2066 23.5715C20.216 23.5531 20.2214 23.5328 20.2224 23.5121C20.2235 23.4914 20.2202 23.4707 20.2127 23.4514C20.2053 23.4321 20.1938 23.4145 20.1791 23.3999C20.1644 23.3853 20.1468 23.374 20.1274 23.3666C20.108 23.3593 20.0873 23.3561 20.0666 23.3573C20.0459 23.3585 20.0257 23.3641 20.0073 23.3736C19.9889 23.3831 19.9727 23.3964 19.9598 23.4126C19.9468 23.4288 19.9375 23.4476 19.9323 23.4677C19.9105 23.5206 19.4212 24.7838 19.9936 25.6792C20.3125 26.1789 20.8911 26.4563 21.7138 26.503C21.8021 26.504 21.8956 26.5072 21.9953 26.5072Z" fill="#8C0331"/>
<path d="M26.008 33.7724C26.919 33.7724 28.3079 33.5293 30.1174 32.5133C30.8344 32.1136 31.5143 31.6509 32.1493 31.1307C32.164 31.1181 32.1761 31.1027 32.1849 31.0854C32.1937 31.0681 32.199 31.0493 32.2005 31.0299C32.202 31.0106 32.1996 30.9911 32.1936 30.9727C32.1876 30.9543 32.178 30.9372 32.1654 30.9224C32.1528 30.9077 32.1374 30.8956 32.1201 30.8868C32.1028 30.878 32.0839 30.8728 32.0646 30.8713C32.0453 30.8698 32.0258 30.8721 32.0074 30.8781C31.9889 30.8841 31.9719 30.8937 31.9571 30.9064C31.9249 30.9334 28.7182 33.6415 25.7431 33.469C25.016 33.4275 24.5194 33.1958 24.2545 32.7814C23.7632 32.0116 24.214 30.8482 24.2182 30.8367C24.2253 30.8187 24.2289 30.7995 24.2286 30.7801C24.2283 30.7607 24.2242 30.7416 24.2166 30.7238C24.2089 30.706 24.1978 30.6899 24.1839 30.6764C24.17 30.6629 24.1536 30.6523 24.1356 30.6451C24.1176 30.6379 24.0983 30.6344 24.079 30.6347C24.0596 30.6349 24.0404 30.639 24.0226 30.6467C24.0049 30.6544 23.9887 30.6655 23.9752 30.6794C23.9617 30.6933 23.9511 30.7097 23.9439 30.7277C23.9232 30.7817 23.4339 32.0449 24.0052 32.9403C24.3241 33.4389 24.9038 33.7163 25.7265 33.7641C25.8179 33.7692 25.9124 33.7724 26.008 33.7724Z" fill="#8C0331"/>
<path d="M30.2664 42.5419C31.1784 42.5419 32.5662 42.2999 34.3768 41.2829C35.0933 40.8833 35.7729 40.421 36.4077 39.9013C36.4233 39.8891 36.4364 39.8738 36.446 39.8564C36.4556 39.839 36.4616 39.8198 36.4636 39.8C36.4656 39.7802 36.4636 39.7602 36.4577 39.7412C36.4517 39.7222 36.442 39.7046 36.4291 39.6895C36.4162 39.6743 36.4004 39.6619 36.3826 39.6531C36.3648 39.6442 36.3454 39.639 36.3255 39.6379C36.3056 39.6367 36.2857 39.6396 36.267 39.6463C36.2483 39.653 36.2311 39.6634 36.2165 39.677C36.1843 39.704 32.9776 42.4121 30.0025 42.2396C29.2754 42.1981 28.7778 41.9664 28.5129 41.5509C28.0216 40.7822 28.4724 39.6188 28.4776 39.6074C28.4919 39.5709 28.4912 39.5302 28.4756 39.4942C28.4601 39.4581 28.4309 39.4298 28.3945 39.4152C28.3765 39.408 28.3572 39.4044 28.3378 39.4047C28.3185 39.405 28.2993 39.4091 28.2815 39.4168C28.2638 39.4245 28.2477 39.4357 28.2343 39.4497C28.2208 39.4637 28.2103 39.4802 28.2033 39.4983C28.1815 39.5513 27.6923 40.8155 28.2646 41.7099C28.5835 42.2095 29.1621 42.4869 29.9849 42.5347C30.0752 42.5399 30.1687 42.5419 30.2664 42.5419Z" fill="#8C0331"/>
<path d="M38.123 40.2387C39.034 40.2387 40.4229 39.9967 42.2324 38.9797C42.9491 38.58 43.6291 38.1177 44.2643 37.5981C44.279 37.5855 44.2911 37.5701 44.2999 37.5528C44.3087 37.5355 44.314 37.5167 44.3155 37.4973C44.317 37.478 44.3146 37.4585 44.3086 37.4401C44.3026 37.4217 44.293 37.4046 44.2804 37.3899C44.2678 37.3751 44.2524 37.363 44.2351 37.3542C44.2178 37.3455 44.1989 37.3402 44.1796 37.3387C44.1603 37.3372 44.1408 37.3395 44.1224 37.3455C44.1039 37.3515 44.0869 37.3611 44.0721 37.3738C44.0399 37.4008 40.8332 40.1089 37.8581 39.9364C37.131 39.8949 36.6344 39.6632 36.3695 39.2477C35.8782 38.479 36.329 37.3156 36.3332 37.3042C36.3403 37.2861 36.3439 37.2669 36.3436 37.2475C36.3433 37.2282 36.3392 37.209 36.3316 37.1912C36.3239 37.1734 36.3128 37.1573 36.2989 37.1438C36.285 37.1303 36.2686 37.1197 36.2506 37.1125C36.2326 37.1053 36.2133 37.1018 36.194 37.1021C36.1746 37.1023 36.1554 37.1064 36.1376 37.1141C36.1199 37.1218 36.1037 37.1329 36.0902 37.1468C36.0767 37.1607 36.0661 37.1771 36.0589 37.1951C36.0382 37.2481 35.5489 38.5123 36.1202 39.4067C36.4391 39.9063 37.0188 40.1837 37.8415 40.2315C37.9298 40.2366 38.0233 40.2387 38.123 40.2387Z" fill="#8C0331"/>
<path d="M14.1484 37.3458C15.0605 37.3458 16.4483 37.1038 18.2589 36.0868C18.9758 35.6875 19.6554 35.2248 20.2897 34.7042C20.3176 34.6783 20.3344 34.6426 20.3367 34.6047C20.3389 34.5667 20.3264 34.5293 20.3017 34.5004C20.277 34.4714 20.2421 34.4531 20.2043 34.4493C20.1664 34.4454 20.1286 34.4564 20.0986 34.4798C20.0664 34.5068 16.8597 37.2149 13.8835 37.0435C13.1564 37.0009 12.6598 36.7693 12.3949 36.3548C11.9036 35.585 12.3544 34.4216 12.3596 34.4102C12.3702 34.3745 12.3669 34.3361 12.3503 34.3027C12.3337 34.2693 12.3051 34.2435 12.2703 34.2303C12.2354 34.2172 12.1969 34.2177 12.1624 34.2318C12.1279 34.2459 12.1 34.2725 12.0843 34.3063C12.0636 34.3593 11.5743 35.6224 12.1456 36.5179C12.4656 37.0175 13.0442 37.2949 13.8669 37.3416C13.9583 37.3427 14.0487 37.3458 14.1484 37.3458Z" fill="#8C0331"/>
<path d="M44.8882 27.1501C45.8002 27.1501 47.188 26.907 48.9986 25.8901C49.7154 25.4909 50.395 25.0285 51.0295 24.5085C51.0574 24.4826 51.0742 24.447 51.0764 24.409C51.0786 24.371 51.0661 24.3336 51.0414 24.3047C51.0168 24.2757 50.9819 24.2574 50.944 24.2536C50.9062 24.2497 50.8683 24.2607 50.8383 24.2841C50.8061 24.3111 47.5994 27.0192 44.6233 26.8468C43.8961 26.8052 43.3996 26.5736 43.1347 26.1581C42.6433 25.3894 43.0942 24.2259 43.0994 24.2145C43.1102 24.1788 43.1073 24.1404 43.0911 24.1068C43.0749 24.0732 43.0467 24.0469 43.012 24.0332C42.9773 24.0194 42.9387 24.0192 42.9039 24.0326C42.8691 24.046 42.8406 24.072 42.8241 24.1054C42.8033 24.1594 42.314 25.4226 42.8864 26.317C43.2053 26.8167 43.7839 27.094 44.6066 27.1418C44.6949 27.147 44.7884 27.1501 44.8882 27.1501Z" fill="#8C0331"/>
<path d="M65.5393 4.98659C65.5393 4.98659 54.845 5.33354 54.7598 4.92946C54.6747 4.52537 54.4098 0.589406 54.9032 0.41489C55.3966 0.240374 65.021 -0.429643 65.4604 0.424239C65.8998 1.27812 65.8967 4.85778 65.5393 4.98659Z" fill="#017AFF"/>
<path d="M54.9036 0.415892C55.1031 0.346293 56.7922 0.194632 58.7638 0.0959473L58.8396 5.12367C56.6665 5.13614 54.7956 5.09874 54.7603 4.93045C54.6782 4.52844 54.4102 0.591447 54.9036 0.415892Z" fill="#004D9E"/>
</svg>
