<svg width="82" height="101" viewBox="0 0 82 101" fill="none" xmlns="http://www.w3.org/2000/svg">
<g clip-path="url(#clip0_832:24300)">
<path d="M9.05889 100.105C9.05889 100.594 11.5239 100.571 37.8044 100.571C64.9196 100.571 65.2451 100.594 65.2451 100.105C65.2451 99.6152 53.8487 99.9186 37.8976 99.9186C21.9464 99.9186 9.05889 99.6159 9.05889 100.105Z" fill="#827893"/>
<path d="M48.1935 0.675443C48.6864 0.547788 49.1878 0.616222 49.684 0.632672L51.1757 0.681365C52.1601 0.714266 53.1859 0.638594 54.1585 0.830077C54.7328 0.943913 54.7 2.09741 54.1178 2.17637C53.1334 2.30798 52.1148 2.17243 51.1317 2.14611L49.64 2.10597C49.1438 2.09215 48.6391 2.13031 48.1548 1.97436C47.7295 1.83552 47.7604 0.787963 48.1935 0.675443Z" fill="#493333"/>
<path d="M64.2197 7.49245C64.2197 7.49245 65.3354 92.737 64.7782 95.6283C64.221 98.5196 62.0802 100.103 59.1039 100.292C56.1277 100.48 17.1513 100.292 17.1513 100.292C17.1513 100.292 11.8492 99.8251 10.826 94.7887C10.0385 90.9162 10.7328 8.98351 10.826 7.02591C10.9192 5.06832 11.4771 1.33672 16.4045 0.590529C19.8388 0.0713549 57.1259 1.14524 59.566 1.70915C61.9877 2.26978 63.9408 3.57528 64.2197 7.49245Z" fill="#017AFF"/>
<path d="M14.3336 92.7669C14.4268 97.15 17.7758 97.8995 17.7758 97.8995C17.7758 97.8995 22.3613 97.9436 28.535 97.9863C31.5618 98.0061 34.9712 98.0265 38.4082 98.0423C40.2813 98.0495 42.1615 98.0561 43.9945 98.0607C47.9087 98.0692 51.6016 98.0666 54.5168 98.0442C57.5705 98.0212 59.7671 97.9784 60.472 97.8995C63.9136 97.5264 63.5415 92.4899 63.5415 92.4899L62.9836 26.2719C62.9836 26.2719 63.0492 11.9048 62.7979 8.08502C62.5183 3.79477 58.6114 3.61052 58.6114 3.61052C58.6114 3.61052 22.2405 2.3978 18.5194 2.58402C14.7982 2.77024 14.5199 6.96179 14.5199 6.96179C14.5199 6.96179 14.241 88.38 14.3336 92.7669Z" fill="#57C7DD"/>
<path d="M58.0018 7.13045C57.8311 6.29412 58.2922 5.49322 59.0315 5.34159C59.7708 5.18997 60.5085 5.74504 60.6791 6.58138C60.8497 7.41772 60.3887 8.21862 59.6494 8.37024C58.91 8.52186 58.1724 7.96679 58.0018 7.13045Z" fill="#333C72"/>
<path d="M54.2867 6.9443C54.116 6.10796 54.5771 5.30706 55.3164 5.15543C56.0557 5.00381 56.7934 5.55888 56.964 6.39522C57.1346 7.23156 56.6736 8.03246 55.9343 8.18408C55.1949 8.33571 54.4573 7.78063 54.2867 6.9443Z" fill="#333C72"/>
<path d="M10.489 9.07434C10.5034 7.93269 12.261 7.94453 12.261 9.08816L12.2295 20.0415C12.2262 21.2535 10.3348 21.241 10.3499 20.0263L10.489 9.07434Z" fill="#422C2C"/>
<path d="M10.3248 27.8975C10.3602 26.1031 10.292 24.2646 10.4797 22.4788C10.5853 21.4819 11.9399 21.4917 12.0292 22.4913C12.1893 24.2797 12.0915 26.1169 12.0994 27.912C12.1064 29.7185 12.1121 31.5251 12.1165 33.3321C12.1165 34.5546 10.2008 34.5415 10.2218 33.3169C10.2519 31.5104 10.2863 29.704 10.3248 27.8975Z" fill="#422C2C"/>
</g>
<path d="M44.652 49.7589L53.1384 43.8575L61.5032 49.9159L58.5056 40.0462L66.8729 33.9773L56.5342 33.7782L53.3395 23.9707L49.9474 33.7171L39.6064 33.7247L47.8493 39.9471L44.652 49.7589Z" fill="#FFDD85"/>
<path d="M45.7787 48.2548L53.1351 43.1398L60.3857 48.3905L57.7879 39.8354L65.0399 34.575L56.0774 34.403L53.3091 25.9014L50.3686 34.3502L41.4051 34.3567L48.5495 39.7502L45.7787 48.2548Z" fill="#FFCC46"/>
<path d="M57.4659 73.4157L65.9524 67.5143L74.3171 73.5726L71.3196 63.703L79.6869 57.634L69.3481 57.4349L66.1535 47.6274L62.7614 57.3739L52.4204 57.3814L60.6633 63.6039L57.4659 73.4157Z" fill="#FFDD85"/>
<path d="M58.5926 71.9116L65.949 66.7965L73.1996 72.0473L70.6019 63.4921L77.8538 58.2318L68.8914 58.0597L66.1231 49.5581L63.1825 58.0069L54.219 58.0135L61.3634 63.4069L58.5926 71.9116Z" fill="#FFCC46"/>
<path d="M20.0094 49.7589L28.4958 43.8575L36.8606 49.9159L33.863 40.0462L42.2303 33.9773L31.8916 33.7782L28.6969 23.9707L25.3048 33.7171L14.9638 33.7247L23.2068 39.9471L20.0094 49.7589Z" fill="#FFDD85"/>
<path d="M21.1363 48.2548L28.4927 43.1398L35.7433 48.3905L33.1456 39.8354L40.3975 34.575L31.4351 34.403L28.6668 25.9014L25.7262 34.3502L16.7627 34.3567L23.9071 39.7502L21.1363 48.2548Z" fill="#FFCC46"/>
<path d="M32.8236 73.4157L41.31 67.5143L49.6748 73.5726L46.6772 63.703L55.0445 57.634L44.7058 57.4349L41.5111 47.6274L38.119 57.3739L27.778 57.3814L36.021 63.6039L32.8236 73.4157Z" fill="#FFDD85"/>
<path d="M33.9505 71.9116L41.3069 66.7965L48.5575 72.0473L45.9598 63.4921L53.2117 58.2318L44.2493 58.0597L41.481 49.5581L38.5404 58.0069L29.5769 58.0135L36.7213 63.4069L33.9505 71.9116Z" fill="#FFCC46"/>
<path d="M6.20983 73.4157L14.6963 67.5143L23.061 73.5726L20.0635 63.703L28.4308 57.634L18.092 57.4349L14.8974 47.6274L11.5052 57.3739L1.16428 57.3814L9.40719 63.6039L6.20983 73.4157Z" fill="#FFDD85"/>
<path d="M7.33677 71.9116L14.6932 66.7965L21.9438 72.0473L19.346 63.4921L26.598 58.2318L17.6355 58.0597L14.8673 49.5581L11.9267 58.0069L2.96316 58.0135L10.1076 63.4069L7.33677 71.9116Z" fill="#FFCC46"/>
<defs>
<clipPath id="clip0_832:24300">
<rect width="56.1849" height="100.119" fill="white" transform="matrix(-1 0 0 1 65.2432 0.452393)"/>
</clipPath>
</defs>
</svg>
