<svg xmlns="http://www.w3.org/2000/svg" width="80" height="50" viewBox="0 0 80 50">
  <g fill="none" fill-rule="evenodd">
    <path fill="#595959" fill-rule="nonzero" d="M33.7905146,21.5124867 L33.7905146,26.9114219 C33.7905146,32.7174724 38.4973376,37.4241658 44.3037177,37.4241658 L50.0588874,37.4241658 C50.6111721,37.4241658 51.0588874,37.8718811 51.0588874,38.4241658 C51.0588874,38.9764506 50.6111721,39.4241658 50.0588874,39.4241658 L44.3037177,39.4241658 C37.3927804,39.4241658 31.7905146,33.8220543 31.7905146,26.9114219 L31.7905146,20.5124867 C31.7905146,19.960202 32.2382298,19.5124867 32.7905146,19.5124867 L41.0157179,19.5124867 C41.5680026,19.5124867 42.0157179,19.960202 42.0157179,20.5124867 L42.0135606,26.9045323 C41.9066141,28.5300469 42.7239168,29.3371558 44.4899107,29.3373207 L50.0770447,29.4387849 C50.6292384,29.4488129 51.0687505,29.9045837 51.0587225,30.4567774 C51.0486945,31.0089711 50.5929237,31.4484832 50.04073,31.4384552 L44.4717534,31.3371558 C41.6020482,31.3371558 39.83257,29.5897472 40.0157179,26.8388818 L40.0157179,21.5124867 L33.7905146,21.5124867 Z"/>
    <path fill="#595959" fill-rule="nonzero" d="M31.2474263 19.5124867L42.8004731 19.5124867 42.8004731 17.5052669 31.2474263 17.5052669 31.2474263 19.5124867zM30.6188496 15.5052669L43.4290499 15.5052669C44.2702074 15.5052669 44.8004731 16.2403313 44.8004731 17.020581L44.8004731 19.9971726C44.8004731 20.7769044 44.270287 21.5124867 43.4290499 21.5124867L30.6188496 21.5124867C29.7781511 21.5124867 29.2474263 20.7767854 29.2474263 19.9971726L29.2474263 17.020581C29.2474263 16.2404499 29.7782304 15.5052669 30.6188496 15.5052669zM30.6149468 38.0292606C30.4285749 38.3705145 30.2541493 38.701551 30.0938668 39.0194071 29.4354938 40.325026 29.0551185 41.3472398 29.0551185 41.7912606 29.0551185 43.09685 30.1138995 44.1556311 31.4194889 44.1556311 32.7250783 44.1556311 33.7838594 43.09685 33.7838594 41.7912606 33.7838594 41.3472398 33.403484 40.325026 32.7451111 39.0194071 32.5848285 38.701551 32.410403 38.3705145 32.2240311 38.0292606 31.9663186 37.5573795 31.6948665 37.0822347 31.4194889 36.6165753 31.1441113 37.0822347 30.8726593 37.5573795 30.6149468 38.0292606zM35.7838594 41.7912606C35.7838594 44.2014195 33.8296478 46.1556311 31.4194889 46.1556311 29.00933 46.1556311 27.0551185 44.2014195 27.0551185 41.7912606 27.0551185 40.921319 27.5062174 39.7090439 28.3080666 38.1188974 28.4786825 37.7805492 28.6632259 37.4303103 28.8596606 37.0706311 29.2356312 36.3822151 29.6373617 35.6910004 30.0390318 35.0294643 30.1796196 34.7979214 30.310285 34.5864206 30.427769 34.3991074 30.498834 34.2858035 30.5501371 34.2050866 30.5784099 34.1611244 30.9720728 33.5490075 31.8669051 33.5490075 32.2605679 34.1611244 32.2888407 34.2050866 32.3401438 34.2858035 32.4112088 34.3991074 32.5286928 34.5864206 32.6593582 34.7979214 32.799946 35.0294643 33.2016162 35.6910004 33.6033466 36.3822151 33.9793172 37.0706311 34.1757519 37.4303103 34.3602953 37.7805492 34.5309112 38.1188974 35.3327604 39.7090439 35.7838594 40.921319 35.7838594 41.7912606z"/>
    <path fill="#595959" fill-rule="nonzero" d="M47.2217601,35.4194652 L58.774807,35.4194652 L58.774807,33.4122454 L47.2217601,33.4122454 L47.2217601,35.4194652 Z M46.5931834,31.4122454 L59.4033837,31.4122454 C60.2445413,31.4122454 60.774807,32.1473098 60.774807,32.9275595 L60.774807,35.9041511 C60.774807,36.6838829 60.2446208,37.4194652 59.4033837,37.4194652 L46.5931834,37.4194652 C45.7524849,37.4194652 45.2217601,36.6837639 45.2217601,35.9041511 L45.2217601,32.9275595 C45.2217601,32.1474283 45.7525643,31.4122454 46.5931834,31.4122454 Z" transform="rotate(90 52.998 34.416)"/>
  </g>
</svg>
