<svg width="105" height="115" viewBox="0 0 105 115" fill="none" xmlns="http://www.w3.org/2000/svg">
<g clip-path="url(#clip0_832:24123)">
<path d="M55.6738 8.92963L13.5869 42.4976C13.5869 42.4976 23.7874 97.718 53.5059 107.279L58.9578 107.344C85.6633 94.9587 92.4961 42.3528 92.4961 42.3528L59.5086 9.24759L55.6738 8.92963Z" fill="#F19500"/>
<path d="M59.5072 9.25308L19.0374 42.5681C19.0374 42.5681 29.2292 97.7862 58.9576 107.345C88.9082 98.5465 97.9478 42.419 97.9478 42.419L59.5072 9.25308Z" fill="#FFB000"/>
<path d="M58.9514 107.637L53.6446 107.569C53.607 107.568 53.5698 107.561 53.5353 107.546C53.5007 107.531 53.4694 107.51 53.4431 107.483C53.4169 107.456 53.3961 107.424 53.3822 107.389C53.3682 107.354 53.3612 107.317 53.3617 107.279C53.3621 107.242 53.37 107.204 53.3848 107.17C53.3996 107.135 53.4211 107.104 53.448 107.078C53.4749 107.051 53.5067 107.031 53.5417 107.017C53.5766 107.003 53.6139 106.996 53.6515 106.996L58.9169 107.062C65.6724 105.067 71.9112 100.441 77.4583 93.3174C81.9175 87.589 85.9417 80.2365 89.4156 71.4828C95.3399 56.553 97.643 42.5141 97.6621 42.382C97.6788 42.3113 97.7217 42.2495 97.7821 42.2091C97.8425 42.1687 97.916 42.1527 97.9878 42.1642C98.0595 42.1758 98.1242 42.2141 98.1689 42.2714C98.2135 42.3288 98.2349 42.4009 98.2285 42.4733C98.2049 42.6135 95.8938 56.7085 89.9494 71.6956C86.4534 80.5063 82.4023 87.898 77.9108 93.6689C72.2773 100.907 65.9272 105.6 59.0361 107.625C59.0087 107.633 58.9801 107.637 58.9514 107.637Z" fill="#D77300"/>
<path d="M59.8785 18.1298L25.7406 45.2994C25.7406 45.2994 35.7926 91.1327 58.9042 100.608C82.5489 91.4407 91.1865 45.1832 91.1865 45.1832L59.8785 18.1298Z" fill="#FFB000"/>
<path d="M59.8786 18.1299L57.1201 20.3243L87.1531 46.2846C87.1531 46.2846 79.2865 88.4147 58.0189 100.231C58.3115 100.363 58.6048 100.493 58.9026 100.614C82.5474 91.4473 91.1849 45.1897 91.1849 45.1897L59.8786 18.1299Z" fill="#F19500"/>
<path d="M53.7826 98.0935C53.7254 98.0944 53.669 98.0793 53.6198 98.0499C43.4907 91.053 36.3697 77.0921 32.1794 66.615C29.4227 59.705 27.1737 52.6032 25.4503 45.366C25.4391 45.3134 25.4428 45.2587 25.4608 45.2081C25.4789 45.1575 25.5107 45.1129 25.5527 45.0793L59.5608 17.9425C59.5903 17.919 59.6242 17.9015 59.6605 17.891C59.6968 17.8805 59.7348 17.8773 59.7723 17.8815C59.8098 17.8858 59.8462 17.8974 59.8792 17.9156C59.9123 17.9339 59.9414 17.9585 59.965 17.988C59.9885 18.0175 60.006 18.0514 60.0165 18.0877C60.027 18.124 60.0302 18.162 60.026 18.1996C60.0217 18.2371 60.0101 18.2734 59.9919 18.3065C59.9736 18.3395 59.949 18.3687 59.9195 18.3922L26.048 45.4098C27.7638 52.558 29.9913 59.5735 32.7133 66.4022C36.8749 76.8041 43.9345 90.6555 53.9441 97.5692C53.9751 97.5905 54.0016 97.6178 54.022 97.6494C54.0425 97.681 54.0565 97.7163 54.0632 97.7534C54.0699 97.7904 54.0692 97.8285 54.0612 97.8653C54.0532 97.902 54.0379 97.9369 54.0164 97.9677C53.9908 98.0064 53.9561 98.0381 53.9153 98.06C53.8745 98.082 53.8289 98.0935 53.7826 98.0935Z" fill="#D77300"/>
<path d="M66.4105 66.8982C66.4105 66.8982 65.9083 62.6948 66.209 62.5102C66.5097 62.3256 75.6626 62.6169 75.6626 62.6169C75.6626 62.6169 75.8343 66.1524 75.5211 66.3314C75.208 66.5103 66.4105 66.8982 66.4105 66.8982Z" fill="#F19500"/>
<path d="M38.5387 64.9013C38.5387 64.9013 38.19 67.1924 39.1797 67.4576C40.1695 67.7228 52.6496 67.6215 52.6496 67.6215L52.5737 63.8069C52.5737 63.8069 43.8826 64.7351 40.7062 64.6865L38.5387 64.9013Z" fill="#F19500"/>
<path d="M51.3682 75.0692C51.3682 75.0692 50.7867 79.5661 51.529 79.765C52.2713 79.9639 64.7623 79.8656 65.1309 79.4363C65.4995 79.0069 64.9458 75.6645 64.9458 75.6645L51.3682 75.0692Z" fill="#F19500"/>
<path d="M65.0023 38.337C65.0023 38.337 52.1577 37.8102 52.0914 38.0576C52.0251 38.3051 51.9613 49.4219 51.9613 49.4219C51.9613 49.4219 40.1065 49.1603 39.1623 49.7146C38.2182 50.2689 38.0394 64.784 38.5343 64.9166C39.0292 65.0492 49.5756 64.2204 49.5756 64.2204C49.5756 64.2204 41.5861 64.4059 41.6512 64.1629C41.7163 63.9198 41.69 50.1267 42.0146 49.9485C42.3392 49.7703 55.4203 50.3604 55.5558 49.8547C55.6914 49.349 55.0573 38.857 55.3711 38.6759C55.6848 38.4947 65.3646 38.9645 65.0023 38.337Z" fill="#D77300"/>
<path d="M51.7893 63.9459C51.7893 63.9459 54.5924 63.3733 54.7073 63.9345C54.8221 64.4956 54.3972 74.9806 54.892 75.1132C55.3869 75.2458 65.9382 75.4233 66.3226 74.9959C66.707 74.5685 66.2624 64.9323 66.2624 64.9323C66.2624 64.9323 67.1341 74.9365 66.7512 75.376C66.3682 75.8154 51.8281 76.6768 51.4652 76.0515C51.1023 75.4261 51.7893 63.9459 51.7893 63.9459Z" fill="#D77300"/>
<path d="M65.0591 39.5317C65.0591 39.5317 64.9773 50.2553 65.2356 50.3245C65.4939 50.3937 75.6743 49.9414 75.8532 50.2545C76.0322 50.5677 75.7065 62.6705 75.6402 62.918C75.5739 63.1654 77.0419 49.7774 76.3659 49.3311C75.6899 48.8847 66.1768 49.7811 65.8146 49.1536C65.4523 48.5261 65.0591 39.5317 65.0591 39.5317Z" fill="#D77300"/>
<path d="M66.0814 73.8728C66.0852 73.6156 65.0886 62.7404 65.7824 62.1307C66.4762 61.521 75.3439 62.043 75.4102 61.7955C75.4765 61.5481 64.9402 60.3161 64.3619 61.4849C63.7835 62.6536 65.6506 73.4922 65.3369 73.6733C65.0232 73.8545 56.2018 74.1405 56.2018 74.1405C56.2018 74.1405 66.062 74.9261 66.0814 73.8728Z" fill="#FFBA31"/>
<path d="M63.9925 39.1365C63.9925 39.1365 56.4326 38.6997 56.2337 39.4421C56.0347 40.1844 56.6659 50.6872 56.0384 51.0494C55.4109 51.4117 43.1275 50.7701 43.1275 50.7701C43.1275 50.7701 56.4488 52.4784 57.026 51.3141C57.6032 50.1497 56.9566 40.6943 57.4035 40.0161C57.8505 39.3379 64.3577 39.7532 63.9925 39.1365Z" fill="#FFBA31"/>
<path d="M60.1616 11.8641L96.6463 42.8402C96.6463 42.8402 91.7221 66.1662 85.2925 79.2832C85.2925 79.2832 94.7561 51.8741 94.9649 43.1853C94.9736 43.1876 59.9542 13.6627 60.1616 11.8641Z" fill="#FFBA31"/>
<path d="M25.0557 46.9792C25.0557 46.9792 35.159 92.3518 57.9859 101.118C57.9859 101.118 34.2142 96.8676 25.0557 46.9792Z" fill="#FFBA31"/>
</g>
<defs>
<clipPath id="clip0_832:24123">
<rect width="82.2793" height="96.4921" fill="white" transform="translate(24.9741) rotate(15)"/>
</clipPath>
</defs>
</svg>
