<svg xmlns="http://www.w3.org/2000/svg" width="142" height="20" viewBox="0 0 142 20">
    <path fill="#46475C" fill-rule="evenodd" d="M70.26 1.148l1.753 1.564.818-.709.093.111-.855.738v10.28c-.042.67-.15 1.353-.782 1.746-1.408.837-3.107-.13-4.62-.349-1.124-.167-2.888-.38-3.33.653-.145.34-.135.864.375 1.207 1.022.685 5.576-1.151 7.138-.422 1.424.665 1.419 1.716 1.2 2.44C71.678 19.763 69.971 20 69.971 20s.835-.486.597-1.292c-.12-.407-.396-.521-1.29-.422-1.952.223-4.285 1.172-5.853.513-.808-.337-1.38-1.35-1.324-2.346.04-1.432 1.69-1.997 1.69-1.997l-.001-5.298c-.047-.211-.927-.156-1.12.234-.292.589.364.858.364.858s-.544.082-1-.445c-.222-.258-.685-1.16-.082-1.994.495-.689 1.09-.809 1.838-.89V3.794c0-.802-.325-1.25-.851-1.262-.758-.017-.937 1.055-.937 1.055s-.138-.826.551-1.576c.387-.419 1.11-1.008 2.24-.735 1.168.284 1.5 1.192 1.5 1.994v11.056s.44.053.743.12c.351.073.684.167.684.167V1.283h.145V3.08l2.393-1.933zM14.263.735v6.548l2.238-1.927 1.744 1.945.756-.571.09.114-.769.589v4.062l-.05 1.86c.007 1.312-.597 2.591-1.798 3.195-1.085.545-1.985.474-2.495.348.625-.184.871-.24 1.484-.949.614-.705.618-2.167.626-3.338-.002-.795-.001-2.75-.001-3.768v-.64L15 6.847l-.73.624-.006 5.11.624.621.589-.468.09.114-2.505 2-1.592-1.485-.572.428-.081-.123L12 12.787V3.614c-.012-.56-.408-.633-.533-.712L14.264.735zM40.4.583c.127.126.6 1.426-.557 2.618-.362.372-1.107.641-1.595.662v11.044s.052.173-.16.173c-.247 0-.305-.126-.305-.126L31.775 3.98v7.808c.892.131 1.787.586 2.418 1.306l.622-.697.111.1-2.313 2.562c-.525-.618-1.147-.905-1.755-.82-.609.082-.887.685-.895.993-.011.48.41 1.09 1.41 1.204-1.294.222-2.047-.437-2.412-.952-.449-.633-.474-1.529-.054-2.331.696-1.327 2.24-1.38 2.722-1.374V8.46c-.036-.202-1.038-.123-1.175.36-.13.456.216.721.326.792l.032.02s-.333.005-.76-.276c-.332-.217-.71-.858-.704-1.47.097-1.646 1.674-1.716 2.28-1.757V3.778c-.236-.407-.541-.95-1.129-.958-.654-.009-.817 1.051-.817 1.051s-.118-.22-.011-1.17c.094-.844.887-1.823 1.993-1.817.963.01 1.578.598 1.98 1.268l4.457 8.119V3.863c-.61-.041-1.2-.112-2.01-.858l-.662.758-.11-.1 2.311-2.64s.582.705 1.536.702c.727-.003 1.162-.574 1.233-1.142zm101.28 4.346c.182.325.668 1.291-1.201 3.453L142 9.615v3.18s-1.768.923-3.44 2.147c0 0-.934-1.171-1.745-.612-.547.377-.297 1.016.472 1.303-.258.076-1.376-.196-1.645-1.359-.261-1.133.523-1.9 1.709-3.107l-1.4-1.283V7.436s1.029-.516 1.834-1.02l.284-.179c.705-.448 1.346-.875 1.346-.875s.602.762 1.28.7c1.065-.093 1.015-.934.984-1.133zM8.78.018c.397.035 1.02.23 1.49.644.5.486.613 1.224.438 1.895-.155.597-.33.908-.937 1.32-.615.416-1.358.381-1.358.381v2.59l1.256 1.018-1.256 1.016v3.527s1.258-.723 2.039-2.343c0 0 .032-.088.105-.255.07.434.03 1.312-.46 2.44-.368.849-1.039 1.666-1.88 2.132-1.49.829-2.608.908-3.807.659-1.403-.29-2.678-1.081-3.548-2.46-.61-.97-.884-2.1-.86-3.316.05-2.387 1.82-4.445 3.864-5.213.249-.093.348-.155.7-.187-.162.111-.35.255-.58.407-.66.433-1.223 1.297-1.464 1.962L6.488 4.46v5.562L3.289 11.63c.365.506 1.472 1.274 2.42 1.382 1.61.179 2.556-.527 2.556-.527V8.882L7.016 7.866l1.25-1.016V4.258c-.681-.079-1.509-.304-1.993-.424-.71-.176-3.083-.844-3.456-.9-.372-.055-.832-.038-1.11.211-.278.252-.45.695-.332 1.093.067.225.222.357.339.486 0 0-.137-.012-.385-.161-.448-.27-.789-.797-.83-1.447-.053-.852.297-1.62.998-2.135C2.106.59 2.795.337 3.595.451c1.168.167 2.74.829 4.138 1.165.542.132.962.176 1.343-.046.177-.13.49-.46.234-.9C9.012.156 8.441.168 7.958.077c.416-.088.507-.088.82-.058zm99.506 0c.397.035 1.021.23 1.491.644.5.486.613 1.224.438 1.895-.156.597-.33.908-.938 1.32-.614.416-1.357.381-1.357.381v2.59l1.256 1.018-1.256 1.016v3.527s1.258-.723 2.038-2.343c0 0 .033-.088.106-.255.069.434.03 1.312-.46 2.44-.369.849-1.04 1.666-1.88 2.132-1.491.829-2.609.908-3.807.659-1.404-.29-2.678-1.081-3.548-2.46-.611-.97-.885-2.1-.86-3.316.05-2.387 1.82-4.445 3.864-5.213.248-.093.347-.155.7-.187-.163.111-.35.255-.581.407-.658.433-1.222 1.297-1.463 1.962l3.966-1.775v5.562l-3.198 1.608c.365.506 1.472 1.274 2.42 1.382 1.61.179 2.556-.527 2.556-.527V8.882l-1.249-1.016 1.25-1.016V4.258c-.682-.079-1.51-.304-1.993-.424-.711-.176-3.084-.844-3.456-.9-.372-.055-.832-.038-1.11.211-.279.252-.45.695-.333 1.093.068.225.222.357.34.486 0 0-.138-.012-.386-.161-.448-.27-.789-.797-.83-1.447-.052-.852.298-1.62.999-2.135.609-.392 1.297-.644 2.098-.53 1.168.167 2.739.829 4.138 1.165.542.132.961.176 1.342-.046.178-.13.49-.46.235-.9-.298-.515-.869-.503-1.352-.594.416-.088.507-.088.82-.058zM48.143 3.602s-.78.49-.59 1.192c.291 1.084 2.138 1.18 2.173 2.624v5.035l1.364 1.095.359-.281v-5.45l-.736-.733 1.894-1.68 1.73 1.537-.66.717v4.83l1.62 1.341.288-.185V7.831l-.737-.691 1.897-1.74 1.774 1.47.708-.63.096.112-1.594 1.406v4.738l-4.081 2.525-2.087-1.658-2.07 1.647-1.905-1.588-.837.61-.085-.12.851-.625V8.85c.041-1.827-1.669-1.373-1.576-3.312.04-.852.863-1.497 1.278-1.71.445-.226.926-.226.926-.226zm29.541 1.801L80.16 7.56l.685-.633.099.111-.668.621v5.058s-1.268.674-2.153 1.175c-.884.5-1.83 1.089-1.83 1.089l-2.326-1.965-.615.536-.1-.111.647-.565v-5.44h.009s1.097-.497 2.023-1.021c.828-.469 1.754-1.01 1.754-1.01zm-33.623.041l1.793 3.128-3.544 2.616v.618l1.765 1.657 2.146-1.69.092.112-3.884 3.086-2.236-2.026-.713.577-.097-.114.731-.59V7.694s1.096-.536 1.914-1.022c.817-.489 2.033-1.227 2.033-1.227zm-19.898 0l1.794 3.128-3.544 2.616v.618l1.764 1.657 2.147-1.69.092.112-3.885 3.086-2.235-2.026-.713.577-.097-.114.73-.59V7.694s1.097-.536 1.914-1.022c.818-.489 2.033-1.227 2.033-1.227zm108.801 0l1.794 3.128-3.545 2.616v.618l1.765 1.657 2.147-1.69.092.112-3.884 3.086-2.236-2.026-.713.577-.097-.114.73-.59V7.694s1.097-.536 1.915-1.022c.816-.489 2.032-1.227 2.032-1.227zM90.875.54v11.885l.788.831.596-.518.093.111-2.401 2.103-1.627-1.532-.651.574-.103-.111 1.136-.993V3.992c0-.861-.351-1.391-.81-1.353l2.98-2.1zM83.41 5.453l1.323 1.593 1.477-1.514s.204.179.394.272c.108.053.555.285.966.059.222-.123.254-.155.498-.387.05 1.178-.514 2.007-1.217 2.35-.288.14-1.129.41-2.008-.666v5.442l.936.829.78-.648.09.115-2.445 2.047-1.86-1.698-.67.632-.11-.117 1.02-.923.008-4.698-.782-1.04-.672.595-.097-.108 2.369-2.135zm41.425.006l1.607 1.807.85-.648.089.118-.85.647v4.794l.88.979.574-.53.1.108-2.362 2.187-1.76-1.924.412-.412v-4.2l-1.252-1.383-.46.375.016 5.143.627.659-1.705 1.71-1.593-1.798.451-.45V8.416l-1.2-1.406-.432.346v5.122l.713.74-1.736 1.717-1.693-1.918.528-.483V8.3l-1.086-1.233-.732.632-.095-.111 2.357-2.056 1.624 1.734 2.22-1.743 1.61 1.758 2.298-1.822zm-28.553-.14c-.143 1.065-.682 2.275-1.794 2.46-.98.163-1.892-.601-1.892-.601l-.178.275 3.794 5.746.758-.667.098.11-2.603 2.282-3.502-5.611 2.733-3.986s.36.428.987.595c.854.222 1.599-.604 1.599-.604zm15.87.18l1.641 1.92.746-.645.095.111-.785.683V12.3l.931 1.078.664-.585.095.111-2.253 2.017-1.56-1.803-.716.612-.095-.112.682-.597V8.18l-.967-1.148-.618.536-.095-.112 2.235-1.956zM68.726 8.766c-.518 0-.86.437-.86.437v5.453s.695.185 1.2-.232c.526-.434.51-1.032.505-1.11V9.187s-.327-.422-.845-.422zm70.29 1.014c-1.015 1.022-2.82 2.5-3.045 3.403 0 0 .804-1.333 2.184-1.046 1.324.276 1.783 1.679 1.783 1.679v-3.23l-.923-.806zm-62.91-3.263v5.5L78.07 13.8V8.34l-1.966-1.824zM4.061 5.705l-1.61.72c-.001 0-.411.923-.34 2.261.057 1.046.64 2.297 1.088 2.82l.862-.43V5.705zm99.507 0l-1.61.72s-.412.923-.34 2.261c.056 1.046.64 2.297 1.087 2.82l.863-.43V5.705zm-61.26.89V11l1.803-1.324-1.802-3.08zm88.904 0V11l1.803-1.324-1.803-3.08zm-108.8 0V11l1.801-1.324-1.802-3.08zm115.607-.16v2.544l.845.738s1.835-1.473 2.5-2.838c0 0-.824 1.122-1.934.78-.93-.285-1.41-1.225-1.41-1.225zm-70.154.895V8.96l.033-.033c.096-.092.4-.345.824-.345.518 0 .847.357.847.357V7.333l-.032.033c-.094.091-.391.342-.815.342-.518 0-.857-.378-.857-.378zm.555-4.498l-.555.44v3.815s.342.434.86.434.844-.416.844-.416v-3.26l-1.15-1.013zm43.842-.943l1.38 1.535-1.705 1.552-1.372-1.529 1.697-1.558z"/>
</svg>
