<svg xmlns="http://www.w3.org/2000/svg" width="158" height="20" viewBox="0 0 158 20">
    <path fill="#46475C" fill-rule="evenodd" d="M94.496 4.897c3.532.462 5.584 2.577 5.928 6.139.072.744.073 1.494.111 2.341h-8.923c.13.742.178 1.385.363 1.987.222.723.791 1.065 1.555 1.066.795.001 1.418-.337 1.601-1.11.151-.636.48-.715 1.028-.703 1.349.03 2.699.01 4.12.01-.273 2.178-1.252 3.783-3.214 4.616-2.383 1.012-4.814.959-7.183-.082-1.61-.707-2.596-2.005-3.1-3.667-.507-1.665-.572-3.373-.242-5.066.765-3.934 3.87-6.066 7.956-5.531zm-22.293.32v10.308l1.164.105v3.911h-5.84l-.091-1.341c-.216.19-.366.314-.508.447-1.447 1.361-4.09 1.729-5.85.804-1.305-.685-1.904-1.833-1.95-3.246-.066-1.975-.048-3.952-.064-5.928-.003-.323 0-.645 0-1.053l-1.127-.078V5.23h6.354v.84c0 2.464-.002 4.928.003 7.392 0 .324-.001.656.067.97.151.686.58 1.104 1.31 1.09.696-.014 1.123-.44 1.222-1.09.101-.664.095-1.347.105-2.023.016-1.048.004-2.096.004-3.18l-1-.086V5.217h6.201zm54.778-.319c5.061.557 6.253 4.22 6.186 7.928-.01.544-.36.507-.719.507h-8.201c.13.767.182 1.36.34 1.923.222.797.798 1.2 1.631 1.202.828.002 1.446-.379 1.643-1.18.14-.567.432-.642.922-.633 1.35.023 2.703.008 4.14.008-.192 1.682-.846 3.013-2.162 3.982-2.403 1.768-6.968 1.74-9.253-.179-.757-.636-1.437-1.528-1.797-2.443-.933-2.373-.918-4.83.026-7.22 1.094-2.768 3.939-4.258 7.244-3.895zm17.946 1.173c1.174.674 1.793 1.805 1.83 3.172.047 1.76.03 3.521.04 5.282v1.014l1.155.115v3.852h-5.917l-.188-1.528c-.899 1.1-1.934 1.706-3.224 1.881-2.163.294-3.96-.578-4.635-2.304-.842-2.149-.188-4.537 1.576-5.735 1.212-.822 2.599-1.041 4.016-1.12.672-.036 1.348-.006 2-.006.401-1.307.056-2.355-.812-2.597-.875-.244-1.446.27-1.845 1.69h-4.697c-.06-1.766.55-3.18 2.09-3.967 2.885-1.476 5.806-1.36 8.61.25zM25.01 4.889c3.577.446 5.632 2.552 5.994 6.164.072.722.093 1.45.148 2.332H22.19c.121.719.17 1.334.338 1.915.221.762.789 1.131 1.592 1.13.798 0 1.412-.353 1.592-1.122.152-.647.498-.701 1.038-.69 1.345.028 2.69.01 4.035.01-.029 2.504-1.892 4.627-4.628 5.074-1.31.214-2.717.213-4.025-.01-2.775-.475-4.424-2.244-4.975-5.004-.322-1.613-.335-3.237.082-4.835.92-3.524 3.943-5.442 7.771-4.964zM54.703.674v4.489h2.293v4.036h-2.235c0 1.925-.055 3.76.023 5.588.04.946.601 1.196 2.103 1.152 0 1.052.018 2.104-.018 3.155-.006.17-.245.468-.386.474-1.449.064-2.925.262-4.343.062-1.844-.26-2.562-1.31-2.574-3.174-.014-2.084-.004-4.17-.004-6.254v-.963l-1.204-.073V5.213l1.605-.08c0-.94-.03-1.855.02-2.766.014-.247.23-.642.425-.694 1.382-.364 2.784-.657 4.295-.999zm100.33.031v4.456h2.278v4.032h-2.188c0 1.944-.066 3.807.028 5.662.048.932.683 1.204 2.088 1.098 0 1.076.015 2.147-.019 3.216-.004.139-.259.382-.403.387-1.477.045-2.978.217-4.427.022-1.63-.22-2.339-1.165-2.393-2.8-.07-2.11-.04-4.225-.053-6.338-.003-.376 0-.752 0-1.194l-1.182-.117V5.244l1.569-.101v-3.36l4.702-1.078zM8.349 0v3.93H6.7l2.804 10.913.156-.013 3.005-10.866h-1.644V0h7.665v3.857c-1.304.237-1.308.236-1.732 1.589-1.4 4.467-2.805 8.933-4.184 13.407-.168.544-.387.775-1.001.76-1.865-.049-3.731-.018-5.637-.018-.823-2.59-1.635-5.141-2.443-7.693C2.979 9.66 2.253 7.42 1.57 5.166 1.331 4.38 1.18 3.58 0 4.006V0h8.349zm93.706.003c3.602.037 7.21-.051 10.802.159 3.437.2 5.353 2.9 4.646 6.136-.28 1.281-1.047 2.172-2.172 2.79-.233.128-.462.262-.793.45.236.117.381.204.538.263 2.107.792 3.142 2.403 3.089 4.813-.048 2.147-1.284 3.903-3.346 4.484-1.056.297-2.185.43-3.285.453-3.034.06-6.07.022-9.104.02-.156 0-.312-.031-.508-.052v-3.902h1.737V4.708c-.006-.977-.08-.83-1.095-.788-.187.008-.376-.019-.652-.035V.108c.059-.045.101-.106.143-.105zm-59.23 4.8c2.313.116 3.666 1.426 3.732 3.744.059 2.03.02 4.062.024 6.094v.9l1.114.074v3.921h-6.334v-4.34c0-1.462.014-2.925-.008-4.388-.015-.932-.367-1.374-1.08-1.473-.769-.108-1.41.306-1.684 1.092-.044.127-.098.26-.098.39-.007 1.565-.005 3.129-.005 4.726l.879.078v3.92h-7.238v-3.92l1.06-.077v-6.28l-1.056-.115V5.223h5.642l.231 1.974c1.242-1.763 2.837-2.494 4.82-2.394zm41.64.215c.577.04.856.221.825.883-.059 1.238-.017 2.481-.017 3.783-.561 0-1.064-.017-1.565.003-1.831.073-2.783 1.039-2.813 2.862-.016.972-.003 1.944-.003 2.991l1.595.083v3.905h-7.87V15.62l1.095-.072c.018-.252.046-.461.046-.67.003-1.862.002-3.723.002-5.636l-1.137-.073V5.223h5.572l.153 1.91c.874-1.765 2.332-2.24 4.117-2.115zm57.253 7.971c-.793.21-1.495.285-2.09.579-.72.356-.97 1.434-.65 2.23.246.61.72.855 1.362.778.738-.089 1.28-.682 1.368-1.587.055-.561.01-1.132.01-2zM109.3 11.615c-.197.016-.524.299-.532.47-.048 1.126-.024 2.254-.024 3.457.277.03.436.061.594.06l.89-.001c.297-.003.593-.01.888-.032 1.213-.089 1.825-.712 1.838-1.82.013-1.16-.672-1.99-1.798-2.105-.615-.063-1.241-.078-1.856-.029zm16.857-3.21c-1.093.05-1.729.912-1.586 2.211h3.405c.057-1.455-.638-2.264-1.819-2.21zm-32.612.023c-1.098.004-1.731.815-1.642 2.16h3.345c.11-1.36-.539-2.165-1.703-2.16zm-69.437 0c-1.104.019-1.732.838-1.62 2.158h3.341c.11-1.36-.562-2.18-1.721-2.159zm85.177-4.62c-1.101.133-.319 1.138-.54 1.702-.037.093-.006.214-.006.322 0 2.229.208 2.42 2.165 1.982 1.145-.256 1.752-1.162 1.573-2.353-.192-1.287-1.209-1.89-3.192-1.652z"/>
</svg>
