<svg xmlns="http://www.w3.org/2000/svg" width="245" height="20" viewBox="0 0 245 20">
    <path fill="#46475C" fill-rule="evenodd" d="M243.361 17.184c-.714 0-1.31.523-1.31 1.228s.596 1.227 1.31 1.227c.715 0 1.311-.522 1.311-1.227 0-.705-.596-1.228-1.31-1.228zm-47.449 2.314h5.883v-.51l-.64-.141c-.582-.142-.845-.453-.845-1.246V9.905h1.37c.844 0 1.281.198 1.34 1.924l.145 3.622c.116 3.254 1.078 4.16 2.71 4.16 1.66 0 2.096-1.104 2.096-2.66V16.3h-.612v.48c0 1.048-.145 1.784-.553 1.784-.379 0-.408-.283-.495-1.585l-.175-2.49c-.233-3.34-.67-4.5-3.204-4.952 2.418-.623 3.903-2.35 3.903-4.811 0-3.198-2.592-4.726-5.068-4.726h-9.933v.51l.554.113c1.048.226 1.078.764 1.078 3.056v11.263c0 2.518-.729 3.735-2.39 3.735-1.484 0-2.3-.707-2.3-3.452V1.84c0-.793.262-1.02.902-1.16l.787-.17V0h-6.087v.51l.64.17c.583.17.786.396.786 1.188v13.159c0 2.97 1.777 4.612 4.487 4.612 2.708 0 4.048-1.641 4.048-4.697V2.66c0-1.528.32-2.066 1.602-2.066 1.02 0 1.457.34 1.457 1.274V17.6c0 .793-.262 1.076-.845 1.218l-.64.17v.509zm40.006-17.566c0-.795.27-1.05.871-1.165l.812-.17v-.54h-6.25v.511l.66.17c.602.171.872.399.872 1.194V17.85c0 .767-.33 1.194-1.262 1.194-1.082 0-1.232-.342-1.622-2.018L226.153 0h-1.203l-3.665 16.485c-.421 1.847-.632 2.273-1.443 2.5l-.511.143v.511h4.297v-.511l-.63-.114c-.902-.17-1.142-.625-.692-2.785l2.164-10.545 2.373 11.17c.361 1.62.331 1.933-.961 2.16l-.63.114v.511h15.925v-6.48h-.571c-.3 2.984-.931 5.798-3.486 5.798h-1.202V1.932zm-8.723 12.797v-.818h-4.244l-.125.818h4.37zM210.55 2.223v13.625c0 2.053 0 3.022-1.095 3.193l-.548.085v.513h4.473v-.513c-1.947-.256-1.947-.883-1.947-3.107V3.08l-.73-.627 7.455 17.187h1.278V3.791c0-2.337 0-2.85 1.218-3.164l.426-.114V0h-4.596v.513l.518.114c1.552.257 1.552.827 1.552 2.993v9.92l.304-.086L213.197 0h-4.352v.513l.426.114c.488.143.761.656 1.278 1.596zM200.981.818h1.195c1.195 0 2.3.705 2.3 4.227 0 3.604-.836 3.956-2.51 3.956h-.985V.818zm-20.099 8.807c0 8.053-.694 9.196-2.199 9.196-1.504 0-2.17-1.143-2.17-9.14 0-7.748.724-8.863 2.17-8.863 1.505 0 2.2 1.115 2.2 8.807zm3.496.18C184.378 4.44 182.5 0 178.682 0c-3.847 0-5.664 4.44-5.664 9.806 0 5.394 1.878 9.833 5.664 9.833 3.91 0 5.696-4.439 5.696-9.833zm-12.86-7.935c0-.793.215-1.048.827-1.19l.673-.17V0h-6.336v.51l.765.17c.612.142.95.34.95 1.162v13.631c0 1.899-.185 3.43-1.715 3.43-.98 0-1.714-.71-1.683-1.22.09-.878 1.683-.82 1.805-2.238.092-1.02-.612-1.446-1.255-1.53-.949-.114-2.111.623-2.143 2.097-.03 1.898 1.317 3.627 3.613 3.627 2.54 0 4.5-1.587 4.5-4.62V1.87zm-98.999.062c0-.795.27-1.05.87-1.165l.81-.17v-.54h-6.24v.511l.66.17c.6.171.87.399.87 1.194V17.85c0 .767-.33 1.194-1.261 1.194-1.08 0-1.26-.342-1.65-2.018L62.737 0h-1.2l-3.661 16.485c-.42 1.847-.63 2.273-1.44 2.5l-.511.143v.511h4.291v-.511l-.63-.114c-.9-.17-1.14-.625-.69-2.785l2.16-10.602 2.371 11.227c.33 1.62.33 1.933-.96 2.16l-.63.114v.511H77.77v-6.48h-.57c-.3 2.984-.93 5.798-3.481 5.798h-1.2V1.932zM154.38.684h.635c1.792 0 2.398 2.822 2.6 5.815h.549V0h-10.486v6.5h.549c.202-2.994.81-5.816 2.6-5.816h.635V17.73c0 .799-.26 1.084-.837 1.226l-.751.171v.513h6.24v-.513l-.896-.199c-.55-.143-.838-.314-.838-1.198V.684zM141.68 9.777l.915.029c1.33.028 1.713.513 1.98 3.62h.56V5.5h-.56c-.326 2.48-.68 3.535-1.95 3.564l-.945.028V.684h2.038c2.275 0 2.777 2.765 3.101 5.815h.562V0h-10.19v.513l.649.171c.679.171.856.57.856 1.226v15.82c0 .798-.265 1.083-.856 1.225l-.65.171v.513h10.486V13.14h-.561c-.355 2.965-.739 5.815-3.397 5.815h-2.038V9.777zm-12.07 0l.891.029c1.293.028 1.666.513 1.925 3.62h.546V5.5h-.546c-.316 2.48-.66 3.535-1.896 3.564l-.92.028V.684h1.983c2.212 0 2.7 2.822 3.016 5.815h.546V0h-10.199v.513l.92.171c.66.171.833.57.833 1.226v15.82c0 .798-.259 1.083-.833 1.225l-.632.171v.513h10.198V13.14h-.545c-.345 2.965-.719 5.815-3.304 5.815h-1.983V9.777zM117.967.818h.98c1.306 0 2.515.705 2.515 4.227 0 3.55-.914 3.956-2.744 3.956h-.751V.818zm-4.37 18.708h6.118v-.51l-.667-.142c-.605-.142-.878-.453-.878-1.247V9.919h1.12c.879 0 1.333.34 1.394 1.927l.151 3.627c.121 3.26 1.12 4.166 2.816 4.166 1.726 0 2.18-1.105 2.18-2.664v-.652h-.635v.482c0 1.049-.152 1.786-.576 1.786-.393 0-.424-.284-.514-1.587l-.182-2.494c-.242-3.43-.727-4.506-3.331-4.96 2.513-.623 4.057-2.352 4.057-4.817 0-3.203-2.694-4.733-5.268-4.733h-5.784v.51l.666.17c.606.17.878.397.878 1.19v15.757c0 .794-.272 1.077-.878 1.219l-.666.17v.51zM108.94.684h.635c1.791 0 2.398 2.822 2.6 5.815h.549V0h-10.486v6.5h.549c.202-2.994.809-5.816 2.6-5.816h.635V17.73c0 .799-.26 1.084-.837 1.226l-.752.171v.513h6.095v-.513l-.75-.17c-.751-.172-.838-.742-.838-1.227V.684zm-6.702 13.799c0-5.777-6.446-7.298-6.446-11.496 0-.902.344-2.255 1.776-2.255 2.063 0 2.836 2.621 3.18 5.805h.545V.113h-.344c-.144.62-.402.902-.774.902-.659 0-1.003-1.015-2.578-1.015C95.162 0 93.5 2 93.5 4.62c0 4.763 6.446 6.763 6.446 11.159 0 2-.946 3.127-2.235 3.127-1.92 0-3.18-2.225-3.524-5.804h-.544v6.424h.344c.286-.93.659-1.014.974-1.014.544 0 1.117 1.127 2.779 1.127 2.55 0 4.498-2.17 4.498-5.156zm-20-12.602c0-.798.265-1.054.853-1.168l.794-.171V0H77.77v.513l.646.171c.588.171.853.4.853 1.197V17.73c0 .799-.265 1.084-.853 1.226l-.646.171v.513h9.612V13.14h-.559c-.294 2.993-.91 5.815-3.41 5.815H82.24V1.881zM62.917 14.73v-.818h-4.243l-.126.818h4.369zm-17.294 4.91h1.197L49.53 5.656h-.408L52.1 19.64h1.05l3.56-16.484c.379-1.734.583-2.33 1.283-2.501l.555-.142V0h-4.114v.512l.613.113c.875.17 1.079.683.67 2.785l-2.304 11.056h.35L51.428 2.814c-.234-1.109-.38-2.018.584-2.189l.641-.113V0h-5.63v.512l.379.085c.584.142.671.483.904 1.563l.905 4.235-.175-2.558-2.013 10.345h.262L44.922 2.814c-.263-1.165-.35-2.046.583-2.217l.439-.085V0h-5.748v.512l.554.142c.525.142.817.398 1.167 1.96l3.705 17.025zM29.831 9.777l.915.029c1.33.028 1.713.513 1.98 3.62h.56V5.5h-.56c-.325 2.48-.68 3.535-1.95 3.564l-.945.028V.684h2.038c2.274 0 2.776 2.822 3.101 5.815h.561V0h-10.19v.513l.65.171c.68.171.856.57.856 1.226v15.82c0 .798-.266 1.083-.856 1.225l-.65.171v.513h10.486V13.14h-.562c-.354 2.965-.738 5.815-3.396 5.815H29.83V9.777zM11.36 19.639h5.905v-.513l-.662-.142c-.519-.114-.865-.456-.865-1.255V9.95h4.35v7.78c0 .799-.345 1.14-.864 1.255l-.662.142v.513h5.905v-.513l-.634-.17c-.576-.143-.835-.457-.835-1.255V1.881c0-.798.26-1.054.835-1.197l.634-.17V0h-5.905v.513l.662.171c.49.143.864.342.864 1.169v7.326h-4.35V1.853c0-.798.317-1.026.865-1.169l.662-.17V0H11.36v.513l.634.171c.576.171.835.4.835 1.197V17.73c0 .799-.26 1.084-.835 1.226l-.634.171v.513zM6.702.684h.635c1.791 0 2.398 2.822 2.6 5.815h.549V0H0v6.5h.549C.75 3.505 1.358.683 3.149.683h.635V17.73c0 .799-.26 1.084-.838 1.226l-.75.171v.513h6.24v-.513l-.896-.199c-.55-.143-.838-.314-.838-1.198V.684z"/>
</svg>
